<?xml version="1.0" standalone="no"?><!DOCTYPE svg PUBLIC "-//W3C//DTD SVG 1.1//EN" "http://www.w3.org/Graphics/SVG/1.1/DTD/svg11.dtd">
<svg
	t="1694429192965"
	class="icon"
	viewBox="0 0 1024 1024"
	version="1.1"
	xmlns="http://www.w3.org/2000/svg"
	p-id="1567"
	xmlns:xlink="http://www.w3.org/1999/xlink"
	width="64"
	height="64"
>
	<path
		d="M682.666667 85.333333H277.333333a128 128 0 0 0-128 128v597.333334a128 128 0 0 0 128 128h469.333334a128 128 0 0 0 128-128V298.666667L682.666667 85.333333z"
		p-id="1568"
	></path>
	<path
		d="M682.666667 85.333333l144 160L874.666667 298.666667h-128a64 64 0 0 1-64-64V85.333333z"
		p-id="1569"
	></path>
	<path
		d="M277.333333 373.333333m21.333334 0l192 0q21.333333 0 21.333333 21.333334l0 21.333333q0 21.333333-21.333333 21.333333l-192 0q-21.333333 0-21.333334-21.333333l0-21.333333q0-21.333333 21.333334-21.333334Z"
		p-id="1570"
	></path>
	<path
		d="M277.333333 501.333333m21.333334 0l426.666666 0q21.333333 0 21.333334 21.333334l0 21.333333q0 21.333333-21.333334 21.333333l-426.666666 0q-21.333333 0-21.333334-21.333333l0-21.333333q0-21.333333 21.333334-21.333334Z"
		p-id="1571"
	></path>
	<path
		d="M277.333333 629.333333m21.333334 0l426.666666 0q21.333333 0 21.333334 21.333334l0 21.333333q0 21.333333-21.333334 21.333333l-426.666666 0q-21.333333 0-21.333334-21.333333l0-21.333333q0-21.333333 21.333334-21.333334Z"
		p-id="1572"
	></path>
	<path
		d="M277.333333 362.666667m21.333334 0l192 0q21.333333 0 21.333333 21.333333l0 21.333333q0 21.333333-21.333333 21.333334l-192 0q-21.333333 0-21.333334-21.333334l0-21.333333q0-21.333333 21.333334-21.333333Z"
		fill="#FFFFFF"
		p-id="1573"
	></path>
	<path
		d="M277.333333 490.666667m21.333334 0l426.666666 0q21.333333 0 21.333334 21.333333l0 21.333333q0 21.333333-21.333334 21.333334l-426.666666 0q-21.333333 0-21.333334-21.333334l0-21.333333q0-21.333333 21.333334-21.333333Z"
		fill="#FFFFFF"
		p-id="1574"
	></path>
	<path
		d="M277.333333 618.666667m21.333334 0l426.666666 0q21.333333 0 21.333334 21.333333l0 21.333333q0 21.333333-21.333334 21.333334l-426.666666 0q-21.333333 0-21.333334-21.333334l0-21.333333q0-21.333333 21.333334-21.333333Z"
		fill="#FFFFFF"
		p-id="1575"
	></path>
</svg>
