<?xml version="1.0" standalone="no"?><!DOCTYPE svg PUBLIC "-//W3C//DTD SVG 1.1//EN" "http://www.w3.org/Graphics/SVG/1.1/DTD/svg11.dtd">
<svg
	t="1694499949043"
	class="icon"
	viewBox="0 0 1024 1024"
	version="1.1"
	xmlns="http://www.w3.org/2000/svg"
	p-id="1727"
	xmlns:xlink="http://www.w3.org/1999/xlink"
	width="64"
	height="64"
>
	<path
		d="M682.666667 85.333333H277.333333a128 128 0 0 0-128 128v597.333334a128 128 0 0 0 128 128h469.333334a128 128 0 0 0 128-128V298.666667L682.666667 85.333333z"
		p-id="1728"
	></path>
	<path
		d="M651.370667 598.912c-9.706667 0-18.24 0-27.946667 2.090667 10.88 5.333333 21.546667 7.402667 32.405333 8.341333 7.573333 1.130667 15.146667 0 21.546667-2.090667-0.213333-3.029333-4.48-8.341333-26.005333-8.341333z m-147.349334-57.578667l-1.152-1.472-1.173333 2.453334a906.837333 906.837333 0 0 1-32.32 74.282666l-0.32 1.92 2.453333-0.938666a643.882667 643.882667 0 0 1 73.173334-21.824l2.794666-0.597334a343.253333 343.253333 0 0 1-43.456-53.824z m-7.509333-156.650666l-3.562667-1.194667c-1.237333 0-3.392 1.194667-4.416 2.346667-4.48 18.24-1.216 37.610667 6.762667 54.869333 6.741333-18.218667 6.741333-37.589333 1.216-56.021333z m-143.829333 324.693333l3.264-1.152c14.954667-5.482667 26.666667-16.213333 35.114666-30.485333a85.397333 85.397333 0 0 0-38.4 31.637333z m302.485333-66.986667a137.984 137.984 0 0 1-80.042667-32.554666c-44.394667 9.749333-86.464 23.765333-128.746666 41.130666-33.493333 59.648-64.853333 90.048-91.904 90.048-5.461333 0-11.882667-1.173333-16.170667-4.288a31.957333 31.957333 0 0 1-18.304-29.226666c0-9.770667 2.133333-36.864 104.96-81.301334 23.765333-43.285333 42.261333-87.722667 57.258667-134.314666-13.056-25.941333-41.28-89.877333-21.802667-122.453334 6.421333-11.882667 19.456-18.304 33.493333-17.344 10.901333 0 21.632 5.461333 28.032 14.058667 14.037333 19.477333 13.056 60.629333-5.44 121.258667a326.549333 326.549333 0 0 0 66.986667 86.549333c22.784-4.266667 45.376-7.594667 68.16-7.594667 50.837333 1.173333 58.432 24.96 57.258667 38.997334 0.384 37.034667-35.242667 37.034667-53.76 37.034666z"
		p-id="1729"
	></path>
	<path
		d="M651.370667 588.245333c-9.706667 0-18.24 0-27.946667 2.090667 10.88 5.333333 21.546667 7.402667 32.405333 8.341333 7.573333 1.130667 15.146667 0 21.546667-2.090666-0.213333-3.029333-4.48-8.341333-26.005333-8.341334z m-147.349334-57.578666l-1.152-1.472-1.173333 2.453333a906.837333 906.837333 0 0 1-32.32 74.282667l-0.32 1.92 2.453333-0.938667a643.882667 643.882667 0 0 1 73.173334-21.824l2.794666-0.597333a343.253333 343.253333 0 0 1-43.456-53.824z m-7.509333-156.650667l-3.562667-1.194667c-1.237333 0-3.392 1.194667-4.416 2.346667-4.48 18.24-1.216 37.610667 6.762667 54.869333 6.741333-18.218667 6.741333-37.589333 1.216-56.021333z m-143.829333 324.693333l3.264-1.152c14.954667-5.482667 26.666667-16.213333 35.114666-30.485333a85.397333 85.397333 0 0 0-38.4 31.637333z m302.485333-66.986666a137.984 137.984 0 0 1-80.042667-32.554667c-44.394667 9.749333-86.464 23.765333-128.746666 41.130667-33.493333 59.648-64.853333 90.048-91.904 90.048-5.461333 0-11.882667-1.173333-16.170667-4.288a31.957333 31.957333 0 0 1-18.304-29.226667c0-9.770667 2.133333-36.864 104.96-81.301333 23.765333-43.285333 42.261333-87.722667 57.258667-134.314667-13.056-25.941333-41.28-89.877333-21.802667-122.453333 6.421333-11.882667 19.456-18.304 33.493333-17.344 10.901333 0 21.632 5.461333 28.032 14.058666 14.037333 19.477333 13.056 60.629333-5.44 121.258667a326.549333 326.549333 0 0 0 66.986667 86.549333c22.784-4.266667 45.376-7.594667 68.16-7.594666 50.837333 1.173333 58.432 24.96 57.258667 38.997333 0.384 37.034667-35.242667 37.034667-53.76 37.034667z"
		fill="#FFFFFF"
		p-id="1730"
	></path>
	<path
		d="M682.666667 85.333333l144 160L874.666667 298.666667h-128a64 64 0 0 1-64-64V85.333333z"
		p-id="1731"
	></path>
</svg>
