<?xml version="1.0" standalone="no"?><!DOCTYPE svg PUBLIC "-//W3C//DTD SVG 1.1//EN" "http://www.w3.org/Graphics/SVG/1.1/DTD/svg11.dtd">
<svg
	t="1694429339910"
	class="icon"
	viewBox="0 0 1024 1024"
	version="1.1"
	xmlns="http://www.w3.org/2000/svg"
	p-id="2516"
	xmlns:xlink="http://www.w3.org/1999/xlink"
	width="64"
	height="64"
>
	<path
		d="M682.666667 85.333333H277.333333a128 128 0 0 0-128 128v597.333334a128 128 0 0 0 128 128h469.333334a128 128 0 0 0 128-128V298.666667L682.666667 85.333333z"
		p-id="2517"
	></path>
	<path
		d="M277.333333 117.333333m21.333334 0l42.666666 0q21.333333 0 21.333334 21.333334l0 64q0 21.333333-21.333334 21.333333l-42.666666 0q-21.333333 0-21.333334-21.333333l0-64q0-21.333333 21.333334-21.333334Z"
		p-id="2518"
	></path>
	<path
		d="M362.666667 224m21.333333 0l42.666667 0q21.333333 0 21.333333 21.333333l0 64q0 21.333333-21.333333 21.333334l-42.666667 0q-21.333333 0-21.333333-21.333334l0-64q0-21.333333 21.333333-21.333333Z"
		p-id="2519"
	></path>
	<path
		d="M277.333333 330.666667m21.333334 0l42.666666 0q21.333333 0 21.333334 21.333333l0 64q0 21.333333-21.333334 21.333333l-42.666666 0q-21.333333 0-21.333334-21.333333l0-64q0-21.333333 21.333334-21.333333Z"
		p-id="2520"
	></path>
	<path
		d="M362.666667 437.333333m21.333333 0l42.666667 0q21.333333 0 21.333333 21.333334l0 64q0 21.333333-21.333333 21.333333l-42.666667 0q-21.333333 0-21.333333-21.333333l0-64q0-21.333333 21.333333-21.333334Z"
		p-id="2521"
	></path>
	<path
		d="M298.666667 586.666667a21.333333 21.333333 0 0 0-21.333334 21.333333v149.333333a21.333333 21.333333 0 0 0 21.333334 21.333334h128a21.333333 21.333333 0 0 0 21.333333-21.333334v-149.333333a21.333333 21.333333 0 0 0-21.333333-21.333333h-128z m21.333333 106.666666a21.333333 21.333333 0 0 0-21.333333 21.333334v21.333333a21.333333 21.333333 0 0 0 21.333333 21.333333h85.333333a21.333333 21.333333 0 0 0 21.333334-21.333333v-21.333333a21.333333 21.333333 0 0 0-21.333334-21.333334h-85.333333z"
		p-id="2522"
	></path>
	<path
		d="M277.333333 106.666667m21.333334 0l42.666666 0q21.333333 0 21.333334 21.333333l0 64q0 21.333333-21.333334 21.333333l-42.666666 0q-21.333333 0-21.333334-21.333333l0-64q0-21.333333 21.333334-21.333333Z"
		fill="#FFFFFF"
		p-id="2523"
	></path>
	<path
		d="M362.666667 213.333333m21.333333 0l42.666667 0q21.333333 0 21.333333 21.333334l0 64q0 21.333333-21.333333 21.333333l-42.666667 0q-21.333333 0-21.333333-21.333333l0-64q0-21.333333 21.333333-21.333334Z"
		fill="#FFFFFF"
		p-id="2524"
	></path>
	<path
		d="M277.333333 320m21.333334 0l42.666666 0q21.333333 0 21.333334 21.333333l0 64q0 21.333333-21.333334 21.333334l-42.666666 0q-21.333333 0-21.333334-21.333334l0-64q0-21.333333 21.333334-21.333333Z"
		fill="#FFFFFF"
		p-id="2525"
	></path>
	<path
		d="M277.333333 533.333333m21.333334 0l42.666666 0q21.333333 0 21.333334 21.333334l0 64q0 21.333333-21.333334 21.333333l-42.666666 0q-21.333333 0-21.333334-21.333333l0-64q0-21.333333 21.333334-21.333334Z"
		fill="#FFFFFF"
		p-id="2526"
	></path>
	<path
		d="M362.666667 426.666667m21.333333 0l42.666667 0q21.333333 0 21.333333 21.333333l0 64q0 21.333333-21.333333 21.333333l-42.666667 0q-21.333333 0-21.333333-21.333333l0-64q0-21.333333 21.333333-21.333333Z"
		fill="#FFFFFF"
		p-id="2527"
	></path>
	<path
		d="M298.666667 576a21.333333 21.333333 0 0 0-21.333334 21.333333v149.333334a21.333333 21.333333 0 0 0 21.333334 21.333333h128a21.333333 21.333333 0 0 0 21.333333-21.333333v-149.333334a21.333333 21.333333 0 0 0-21.333333-21.333333h-128z m21.333333 106.666667a21.333333 21.333333 0 0 0-21.333333 21.333333v21.333333a21.333333 21.333333 0 0 0 21.333333 21.333334h85.333333a21.333333 21.333333 0 0 0 21.333334-21.333334v-21.333333a21.333333 21.333333 0 0 0-21.333334-21.333333h-85.333333z"
		fill="#FFFFFF"
		p-id="2528"
	></path>
	<path
		d="M682.666667 85.333333l144 160L874.666667 298.666667h-128a64 64 0 0 1-64-64V85.333333z"
		p-id="2529"
	></path>
</svg>
