<?xml version="1.0" standalone="no"?><!DOCTYPE svg PUBLIC "-//W3C//DTD SVG 1.1//EN" "http://www.w3.org/Graphics/SVG/1.1/DTD/svg11.dtd"><svg t="1719536095395" class="icon" viewBox="0 0 1024 1024" version="1.1" xmlns="http://www.w3.org/2000/svg" p-id="2583" xmlns:xlink="http://www.w3.org/1999/xlink" width="200" height="200"><path d="M61.44 512C61.44 263.168 263.168 61.44 512 61.44s450.56 201.728 450.56 450.56-201.728 450.56-450.56 450.56S61.44 760.832 61.44 512z m397.312 180.85888c29.61408 31.92832 76.88192 31.92832 106.496 0l199.63904-215.28576 0.90112-1.00352c17.01888-19.456 16.52736-50.44224-1.10592-69.2224-19.29216-20.52096-48.82432-23.81824-71.4752-7.96672l-150.58944 105.49248c-18.67776 13.1072-42.55744 13.1072-61.2352 0L330.1376 398.9504c-22.26176-15.5648-51.3024-12.34944-70.26688 7.84384l-0.55296 0.57344a46.8992 46.8992 0 0 0-0.90112 1.024c-17.14176 19.31264-16.83456 50.29888 0.69632 69.2224l199.65952 215.26528z" p-id="2584"></path></svg>