<?xml version="1.0" standalone="no"?><!DOCTYPE svg PUBLIC "-//W3C//DTD SVG 1.1//EN" "http://www.w3.org/Graphics/SVG/1.1/DTD/svg11.dtd"><svg t="1719377496622" class="icon" viewBox="0 0 1024 1024" version="1.1" xmlns="http://www.w3.org/2000/svg" p-id="6926" xmlns:xlink="http://www.w3.org/1999/xlink" width="128" height="128"><path d="M213.333 128h85.334v85.333h-85.334v213.334A85.333 85.333 0 0 1 128 512a85.333 85.333 0 0 1 85.333 85.333v213.334h85.334V896h-85.334C167.68 884.48 128 857.6 128 810.667V640a85.333 85.333 0 0 0-85.333-85.333H0v-85.334h42.667A85.333 85.333 0 0 0 128 384V213.333A85.333 85.333 0 0 1 213.333 128m597.334 0A85.333 85.333 0 0 1 896 213.333V384a85.333 85.333 0 0 0 85.333 85.333H1024v85.334h-42.667A85.333 85.333 0 0 0 896 640v170.667A85.333 85.333 0 0 1 810.667 896h-85.334v-85.333h85.334V597.333A85.333 85.333 0 0 1 896 512a85.333 85.333 0 0 1-85.333-85.333V213.333h-85.334V128h85.334M512 640a42.667 42.667 0 0 1 42.667 42.667A42.667 42.667 0 0 1 512 725.333a42.667 42.667 0 0 1-42.667-42.666A42.667 42.667 0 0 1 512 640m-170.667 0A42.667 42.667 0 0 1 384 682.667a42.667 42.667 0 0 1-42.667 42.666 42.667 42.667 0 0 1-42.666-42.666A42.667 42.667 0 0 1 341.333 640m341.334 0a42.667 42.667 0 0 1 42.666 42.667 42.667 42.667 0 0 1-42.666 42.666A42.667 42.667 0 0 1 640 682.667 42.667 42.667 0 0 1 682.667 640z" p-id="6927"></path></svg>