<?xml version="1.0" standalone="no"?><!DOCTYPE svg PUBLIC "-//W3C//DTD SVG 1.1//EN" "http://www.w3.org/Graphics/SVG/1.1/DTD/svg11.dtd"><svg t="1718961548891" class="icon" viewBox="0 0 1024 1024" version="1.1" xmlns="http://www.w3.org/2000/svg" p-id="2699" xmlns:xlink="http://www.w3.org/1999/xlink" width="128" height="128"><path d="M330.6 311.2c-16.7-16.7-43.7-16.7-60.3 0L67.6 513.8l202.9 199.3c8.3 8.1 19.1 12.2 29.9 12.2 11 0 22.1-4.2 30.4-12.8 16.5-16.8 16.3-43.8-0.5-60.4l-141.5-139 141.8-141.8c16.7-16.5 16.7-43.5 0-60.1zM757.5 311.4c-16.5-16.8-43.5-17.1-60.3-0.5-16.8 16.5-17 43.5-0.5 60.3l139.5 142-139.3 139.3c-16.7 16.7-16.7 43.7 0 60.3 8.3 8.3 19.2 12.5 30.2 12.5s21.8-4.2 30.2-12.5l199.1-199-198.9-202.4zM564.8 256.8c-23.1-4.5-45.6 10.4-50.2 33.5L429.3 717c-4.6 23.1 10.4 45.6 33.5 50.2 2.8 0.6 5.6 0.8 8.4 0.8 19.9 0 37.8-14 41.8-34.3L598.3 307c4.6-23.1-10.4-45.6-33.5-50.2z" p-id="2700"></path></svg>