<?xml version="1.0" standalone="no"?><!DOCTYPE svg PUBLIC "-//W3C//DTD SVG 1.1//EN" "http://www.w3.org/Graphics/SVG/1.1/DTD/svg11.dtd"><svg t="1614441290031" class="icon" viewBox="0 0 1024 1024" version="1.1" xmlns="http://www.w3.org/2000/svg" p-id="7496" xmlns:xlink="http://www.w3.org/1999/xlink" width="128" height="128"><defs><style type="text/css"></style></defs><path d="M878.05658706 550.17593363c-3.09394647 0.78966835-6.93872514 0.86734064-10.61521382 0.86734064-101.25878361 0.05178153-202.53051259 0.05178153-303.78929621 0.03883615l-146.10158933 0.01294539c-87.48489639-0.01294539-174.95684741 0-262.45468918-0.01294539-20.49254083 0-38.5772405-14.52471941-41.15337166-33.07545284-3.21045491-22.9262728 8.15559111-41.71002311 28.94587575-47.82024375 3.90950558-1.15213906 8.78991486-1.70879052 14.90013552-1.70879052 90.61767902-0.03883615 181.23535803-0.03883615 271.85303704-0.05178153 142.81346213 0 290.48144276-0.01294539 435.74158222-0.16828997h0.06472691c29.29540109 0 42.3184561 20.02650706 44.55800731 37.16619377 2.64085808 20.1430155-11.10713837 39.37985422-31.94920455 44.75218805z m85.53014361 185.79213274c0 32.86832672-0.9061768 89.06423309-4.00012326 107.73147496-4.50499318 27.25003061-19.10738489 54.20231743-41.11453551 75.89877886-22.0977683 21.77413373-49.30896276 35.89754627-76.61077492 39.75527033-22.90038203 3.24929106-46.97879387 3.46936257-70.26753737 3.67648868-8.33682647 0.06472691-16.97139675 0.1423992-25.4635678 0.36247072-11.72851675 0.28479842-24.20786569 0.29774381-36.0399455-1.59228207-21.82591525-3.49525333-33.70977659-24.98458864-32.22105756-42.90099832 1.82529897-21.90358755 19.39218331-38.53840435 40.88151861-38.69374894 5.57945995-0.03883615 11.14597452-0.09061769 16.72543447-0.1423992 11.36604603-0.10356306 22.90038203-0.2200715 34.49944493-0.22007152 12.09098747 0 24.23375645 0.11650845 36.23412622 0.47897916 19.98767091 0.60843298 38.86203891-7.21057817 53.28319527-22.00715061 14.17519408-14.5376648 22.020096-34.27937343 20.98446538-52.81716148-1.17802983-21.15275536-0.86734064-42.95277985-0.55665146-64.02786291 0.11650845-7.2623597 0.2200715-14.78362706 0.27185303-22.18838598 0.1423992-23.18518045 13.32079882-39.74232494 35.23733177-44.28615427 10.7058315-2.22660583 22.74503743 0.93206755 32.23400295 8.44038953 9.83849086 7.78017502 15.43089619 19.10738489 15.76747616 31.88447763 0.09061769 4.22019476 0.15534459 11.54728139 0.15534459 20.64788543zM344.74565531 920.68573235c0.02589076 25.56713086-17.19146825 42.78448987-42.81038064 42.82332602-28.41511506 0.05178153-56.57132247 0.03883615-87.79558558 0.01294538-36.41536158-0.02589076-71.96338252-13.38552573-100.08075378-37.5933914-28.22093431-24.29848336-46.47392395-57.4516085-51.40611478-93.36210016-2.62791269-19.04265797-2.33016889-85.91850509-2.21366043-111.08432908 0.01294539-3.10689185 0.02589076-5.67007763 0.02589076-7.50832197 0.03883615-21.08802845 16.12994686-37.748736 38.27949669-39.63876189 1.00973985-0.09061769 2.04537047-0.12945383 3.0680557-0.12945382 15.34027852 0 33.10134361 9.50191091 38.56429512 31.52200692 1.52755517 6.13611141 1.56639131 13.08778192 1.61817283 20.4407593l0.01294539 1.69584515c0.11650845 14.21403022 0.10356306 28.6869681 0.0776723 42.69387218-0.01294539 12.582912-0.03883615 25.60596702 0.05178153 38.44778667 0.24596227 39.45752652 31.26309925 70.68178963 70.59117195 71.0830965 20.0653432 0.19418075 40.44137561 0.15534459 60.1442481 0.11650844 9.59252859-0.02589076 19.15916642-0.03883615 28.73874963-0.02589076 24.97164325 0 43.12106983 17.04906903 43.13401521 40.50610252z m0-818.14818766c-0.01294539 22.65441975-16.95845136 39.75527031-39.405745 39.75527033-9.45012939 0.01294539-18.874368 0-28.311552-0.01294539-18.58956958-0.03883615-37.80051753-0.06472691-56.73961244 0.0647269-37.95586213 0.25890765-67.22537245 22.12365906-76.3907034 57.07619241-1.50166439 5.70891378-1.7217359 11.3919368-1.73468129 16.71248909-0.05178153 11.18481067-0.01294539 22.53791131 0.01294539 33.51559584 0.05178153 18.70607803 0.11650845 38.07237057-0.20712612 57.03735626-0.33657995 18.9520403-7.87079269 31.35371694-23.068672 37.91702597-17.35975822 7.4824312-31.97509531 6.00665758-44.66157037-4.54382934-8.95820483-7.45654045-13.57970647-17.12674133-13.7091603-28.75169501-0.33657995-29.01060267-0.23301689-109.2719755 4.09074094-132.00406756 5.41116997-28.47984197 21.12686459-55.96288948 44.20848197-77.40044325 22.95216355-21.30809995 51.74269472-35.35384019 81.07693195-39.57403497 7.68955733-1.10035753 15.17198853-1.68289975 22.24016751-1.72173589 24.80335328-0.16828997 50.03390419-0.12945383 74.448896-0.10356306l19.04265798 0.02589076c10.88706686 0 20.80323003 4.14252247 27.89729974 11.66378983 7.23646894 7.65072118 11.22364682 18.43422498 11.21070144 30.34397708z m618.80223921 184.04450607c-0.02589076 6.58919981-0.06472691 13.16545422-0.0776723 19.74170865-0.05178153 21.02330153-15.19787931 39.58698035-34.51239032 42.24078379-21.73529758 3.0033288-40.77795555-10.14918005-46.30563398-31.93625915-0.64726914-2.57613117-0.73788682-5.74774992-0.75083219-8.77696948-0.03883615-13.42436187-0.02589076-26.83577837-0.01294538-40.26014026 0-17.1526321 0.01294539-34.90075181-0.06472692-52.33818231-0.16828997-32.53174676-20.1430155-60.31253808-49.69732425-69.10245294-7.83195653-2.33016889-16.67365294-3.57292563-26.25323615-3.68943408-13.02305502-0.15534459-26.14967309-0.19418075-39.14683733-0.19418073-6.92577975 0-13.81272336 0.01294539-20.62199467 0.02589077-10.01972622 0.01294539-20.05239783 0.02589076-30.07212405 0.01294537-20.2983601-0.03883615-38.24066053-19.04265797-38.39600513-40.67439249-0.09061769-10.73172227 4.42732089-21.50228069 12.38873126-29.56725412 7.28825047-7.37886815 16.36296375-11.46960909 25.61891239-11.52139061 7.02934282-0.03883615 13.82566875-0.05178153 20.3760324-0.05178154 56.58426785 0 94.87670992 1.38515595 108.76710558 4.00012326 56.22179714 10.55048691 104.55985619 59.85944969 114.95499852 117.20749511 2.12304276 11.68968059 3.2881272 24.44088257 3.57292563 38.96560197 0.42719763 21.90358755 0.33657995 44.28615427 0.23301689 65.91788879z" p-id="7497"></path></svg>