<?xml version="1.0" standalone="no"?><!DOCTYPE svg PUBLIC "-//W3C//DTD SVG 1.1//EN" "http://www.w3.org/Graphics/SVG/1.1/DTD/svg11.dtd"><svg t="1614441317794" class="icon" viewBox="0 0 1096 1024" version="1.1" xmlns="http://www.w3.org/2000/svg" p-id="9597" xmlns:xlink="http://www.w3.org/1999/xlink" width="137" height="128"><defs><style type="text/css"></style></defs><path d="M415.24 190.419A128.774 128.774 0 1 0 544.014 62 128.774 128.774 0 0 0 415.24 190.419zM254.806 544.014h578.417a32.016 32.016 0 0 1 32.016 32.016v32.015a32.016 32.016 0 0 0 32.015 32.372 32.016 32.016 0 0 0 32.016-32.372v-96.402a32.016 32.016 0 0 0-32.016-32.016H608.046a32.016 32.016 0 0 1-32.016-32.016V415.24a32.016 32.016 0 0 0-32.016-32.016 32.371 32.371 0 0 0-32.371 32.016v32.371a32.016 32.016 0 0 1-32.016 32.016H190.42a32.016 32.016 0 0 0-32.016 32.016v96.402a32.016 32.016 0 0 0 32.016 32.372 32.371 32.371 0 0 0 32.371-32.372V576.03a32.016 32.016 0 0 1 32.016-32.016zM62 833.223A128.774 128.774 0 1 0 190.42 704.448 128.419 128.419 0 0 0 62 833.223z m706.836 0a128.419 128.419 0 1 0 128.418-128.775 128.419 128.419 0 0 0-128.418 128.775z m-353.596 0a128.774 128.774 0 1 0 128.774-128.775A128.774 128.774 0 0 0 415.24 833.223z" p-id="9598"></path></svg>