<?xml version="1.0" standalone="no"?><!DOCTYPE svg PUBLIC "-//W3C//DTD SVG 1.1//EN" "http://www.w3.org/Graphics/SVG/1.1/DTD/svg11.dtd"><svg t="1614441342980" class="icon" viewBox="0 0 1024 1024" version="1.1" xmlns="http://www.w3.org/2000/svg" p-id="11558" xmlns:xlink="http://www.w3.org/1999/xlink" width="128" height="128"><defs><style type="text/css"></style></defs><path d="M957.216 404.32c-3.808-11.36-13.632-19.68-25.504-21.504l-270.336-41.728-120.8-258.624C535.328 71.232 524.032 64.032 511.648 64h-0.064a31.968 31.968 0 0 0-28.928 18.336L360.8 340.352l-270.72 40.8a32.014 32.014 0 0 0-25.568 21.408c-3.84 11.36-0.992 23.936 7.36 32.512l196.448 202.08-46.88 284.8a31.997 31.997 0 0 0 13.12 31.328c9.984 7.072 23.168 7.808 33.888 1.92l241.824-133.024 241.312 133.856a32.547 32.547 0 0 0 15.52 3.968h0.64c17.696 0 32-14.304 32-32 0-3.968-0.704-7.776-2.016-11.296l-44.896-278.688L949.76 436.768c8.32-8.544 11.232-21.088 7.456-32.448z" p-id="11559"></path></svg>