<?xml version="1.0" standalone="no"?><!DOCTYPE svg PUBLIC "-//W3C//DTD SVG 1.1//EN" "http://www.w3.org/Graphics/SVG/1.1/DTD/svg11.dtd"><svg t="1614441249036" class="icon" viewBox="0 0 1024 1024" version="1.1" xmlns="http://www.w3.org/2000/svg" p-id="4552" xmlns:xlink="http://www.w3.org/1999/xlink" width="128" height="128"><defs><style type="text/css"></style></defs><path d="M364.8 590.62857143H182.85714286c-60.34285714 0-109.71428571-49.37142857-109.71428572-109.71428572V182.85714286c0-60.34285714 49.37142857-109.71428571 109.71428572-109.71428572h181.94285714c60.34285714 0 109.71428571 49.37142857 109.71428571 109.71428572v298.05714285c0 60.34285714-49.37142857 109.71428571-109.71428571 109.71428572zM841.14285714 358.4H659.2c-60.34285714 0-109.71428571-49.37142857-109.71428571-109.71428571V182.85714286c0-60.34285714 49.37142857-109.71428571 109.71428571-109.71428572H841.14285714c60.34285714 0 109.71428571 49.37142857 109.71428572 109.71428572v65.82857143c0 60.34285714-49.37142857 109.71428571-109.71428572 109.71428571zM364.8 950.85714286H182.85714286c-60.34285714 0-109.71428571-49.37142857-109.71428572-109.71428572v-65.82857143c0-60.34285714 49.37142857-109.71428571 109.71428572-109.71428571h181.94285714c60.34285714 0 109.71428571 49.37142857 109.71428571 109.71428571v65.82857143c0 60.34285714-49.37142857 109.71428571-109.71428571 109.71428572z m476.34285714 0H659.2c-60.34285714 0-109.71428571-49.37142857-109.71428571-109.71428572V543.08571429c0-60.34285714 49.37142857-109.71428571 109.71428571-109.71428572H841.14285714c60.34285714 0 109.71428571 49.37142857 109.71428572 109.71428572V841.14285714c0 60.34285714-49.37142857 109.71428571-109.71428572 109.71428572z" p-id="4553"></path></svg>