<?xml version="1.0" standalone="no"?><!DOCTYPE svg PUBLIC "-//W3C//DTD SVG 1.1//EN" "http://www.w3.org/Graphics/SVG/1.1/DTD/svg11.dtd"><svg t="1614441322440" class="icon" viewBox="0 0 1024 1024" version="1.1" xmlns="http://www.w3.org/2000/svg" p-id="10017" xmlns:xlink="http://www.w3.org/1999/xlink" width="128" height="128"><defs><style type="text/css"></style></defs><path d="M509.27 62.598c-248.668 0-450.254 199.753-450.254 446.161s201.586 446.162 450.255 446.162 450.255-199.754 450.255-446.162S757.939 62.598 509.27 62.598z m0 148.72c55.666 0 107.78 15.033 152.468 41.2L250.676 659.842c-26.404-44.281-41.575-95.922-41.575-151.084 0-164.27 134.386-297.441 300.17-297.441z m0 594.883c-55.666 0-107.78-15.033-152.469-41.198l411.062-407.326C794.27 401.96 809.44 453.6 809.44 508.76c0 164.277-134.394 297.442-300.17 297.442z" p-id="10018"></path></svg>