<?xml version="1.0" standalone="no"?><!DOCTYPE svg PUBLIC "-//W3C//DTD SVG 1.1//EN" "http://www.w3.org/Graphics/SVG/1.1/DTD/svg11.dtd"><svg t="1614441250987" class="icon" viewBox="0 0 1024 1024" version="1.1" xmlns="http://www.w3.org/2000/svg" p-id="4692" xmlns:xlink="http://www.w3.org/1999/xlink" width="128" height="128"><defs><style type="text/css"></style></defs><path d="M825.42250667 584.80298667H628.39239111l-29.53557333-99.30865778c74.05568-33.86026667 125.62545778-108.54172445 125.62545777-195.44291556 0-118.69297778-95.98862222-214.90005333-214.37553777-214.90005333-118.40170667 0-214.37553778 96.22186667-214.37553778 214.90005333 0 86.91484445 51.56977778 161.59744 125.62545778 195.44291556l-29.53557333 99.30865778h-197.02897778a70.59000889 70.59000889 0 0 0-70.59000889 70.59000888v131.0572089c0 17.31697778 14.03904 31.34122667 31.34008889 31.34122666h709.05628444a31.36967111 31.36967111 0 0 0 31.36967111-31.37080889V655.36341333a70.54563555 70.54563555 0 0 0-70.54563555-70.56042666z m48.71509333 291.24266666h-728.07537778a21.84533333 21.84533333 0 0 0-21.84533333 21.84533334v29.12711111a21.84533333 21.84533333 0 0 0 21.84533333 21.84533333h728.09016889a21.84533333 21.84533333 0 0 0 21.84533334-21.84533333v-29.12711111a21.84533333 21.84533333 0 0 0-21.86012445-21.84533334z" p-id="4693"></path></svg>