<?xml version="1.0" standalone="no"?><!DOCTYPE svg PUBLIC "-//W3C//DTD SVG 1.1//EN" "http://www.w3.org/Graphics/SVG/1.1/DTD/svg11.dtd"><svg t="1614441252941" class="icon" viewBox="0 0 1024 1024" version="1.1" xmlns="http://www.w3.org/2000/svg" p-id="4832" xmlns:xlink="http://www.w3.org/1999/xlink" width="128" height="128"><defs><style type="text/css"></style></defs><path d="M736 96c31.04 0 51.712 25.856 51.712 62.08v304.96c-129.28 0-232.64 103.36-227.456 232.576 0 113.728 77.504 206.784 180.928 227.456H115.712c-31.04 0-51.712-25.856-51.712-67.2V158.08c0-36.16 20.672-62.016 51.712-62.016z m43.072 413.568l10.88 0.32C883.328 515.392 960 591.872 960 687.808c0 99.648-82.688 183.552-180.928 183.552h-5.12a179.2 179.2 0 0 1-124.16-52.416c-10.24-10.496-15.424-15.744-20.608-26.24a5.888 5.888 0 0 0-0.832-3.072l-3.52-4.288-0.832-3.136a16 16 0 0 1-3.072-4.736l-4.224-11.52-3.072-4.672c0-5.248-5.12-10.496-5.12-15.744l-1.344-5.248c-1.536-3.52-3.84-7.04-3.84-10.496-5.12-10.496-5.12-26.24-5.12-36.736 0-26.24 5.12-47.168 15.424-68.16v-5.248c0-5.248 5.184-15.744 10.368-20.928 0-1.344 0.32-2.304 0.832-3.2l3.52-4.224 0.832-3.072c30.976-47.232 82.688-78.72 149.888-78.72z m0 52.416c-15.488 0-25.856 10.496-25.856 26.24v125.824c0 15.744 10.368 26.24 25.856 26.24H892.8c10.368 0 25.856-10.496 25.856-26.24 0-15.744-10.368-26.24-25.856-26.24h-87.872v-99.584c0-15.744-10.368-26.24-25.856-26.24zM394.88 468.16H198.4a40.768 40.768 0 0 0-41.344 41.408c0 20.672 15.488 41.344 36.16 41.344h196.48c25.792 0 46.464-15.552 46.464-41.344a40.768 40.768 0 0 0-41.344-41.408z m165.44-206.72H198.4a40.768 40.768 0 0 0-41.344 41.344c0 20.672 15.488 41.344 36.16 41.344h361.856a40.768 40.768 0 0 0 41.344-41.344c0-25.856-15.488-41.344-36.16-41.344z" p-id="4833"></path></svg>