<?xml version="1.0" standalone="no"?><!DOCTYPE svg PUBLIC "-//W3C//DTD SVG 1.1//EN" "http://www.w3.org/Graphics/SVG/1.1/DTD/svg11.dtd"><svg t="1614441314533" class="icon" viewBox="0 0 1024 1024" version="1.1" xmlns="http://www.w3.org/2000/svg" p-id="9317" xmlns:xlink="http://www.w3.org/1999/xlink" width="128" height="128"><defs><style type="text/css"></style></defs><path d="M478.176 454.848c-17.12 0-33.184 6.656-45.248 18.72-24.928 24.96-24.928 65.568 0 90.592 24.128 24.096 66.304 24.064 90.496-0.032 12.096-12.096 18.752-28.16 18.752-45.28s-6.656-33.184-18.752-45.28c-12.064-12.096-28.096-18.72-45.248-18.72zM512 63.968c-247.04 0-448 172.256-448 384 0 116.48 63.008 226.048 170.592 298.944l87.328 71.52c-3.904 19.328-17.408 60.096-32.64 97.536-4.928 12.096-1.984 25.984 7.36 35.072a32.049 32.049 0 0 0 22.272 8.992c4.384 0 8.8-0.896 12.992-2.752 36.416-16.224 147.488-68.96 187.584-125.376C763.104 828.448 960 657.568 960 447.968c0-211.744-200.96-384-448-384z m214.624 334.656c12.512 12.512 12.512 32.736 0 45.248-6.24 6.24-14.432 9.376-22.624 9.376s-16.384-3.136-22.624-9.376l-39.84-39.84-52.288 52.288c10.688 18.944 16.896 40.128 16.928 62.496 0.032 34.24-13.312 66.4-37.504 90.592-24.16 24.16-56.288 37.472-90.496 37.472-34.176 0-66.336-13.312-90.496-37.472-49.888-49.984-49.888-131.2 0-181.056 24.16-24.16 56.288-37.472 90.496-37.472 24.032 0 46.912 6.912 66.848 19.2l136.352-136.352c12.512-12.512 32.736-12.512 45.248 0s12.512 32.736 0 45.248l-39.84 39.84 39.84 39.808z" p-id="9318"></path></svg>