<?xml version="1.0" standalone="no"?><!DOCTYPE svg PUBLIC "-//W3C//DTD SVG 1.1//EN" "http://www.w3.org/Graphics/SVG/1.1/DTD/svg11.dtd"><svg t="1614441239241" class="icon" viewBox="0 0 1024 1024" version="1.1" xmlns="http://www.w3.org/2000/svg" p-id="4412" xmlns:xlink="http://www.w3.org/1999/xlink" width="128" height="128"><defs><style type="text/css"></style></defs><path d="M512 960.00035C264.5696 960.00035 63.99965 759.4304 63.99965 512S264.5696 63.99965 512 63.99965 960.00035 264.5696 960.00035 512 759.4304 960.00035 512 960.00035z m-179.20035-403.2a179.20035 179.20035 0 1 0 358.4007 0H332.79965z m0-89.6007a67.2 67.2 0 1 0 0-134.4 67.2 67.2 0 0 0 0 134.4z m358.4007 0a67.2 67.2 0 1 0 0-134.4 67.2 67.2 0 0 0 0 134.4z" p-id="4413"></path></svg>