<?xml version="1.0" standalone="no"?><!DOCTYPE svg PUBLIC "-//W3C//DTD SVG 1.1//EN" "http://www.w3.org/Graphics/SVG/1.1/DTD/svg11.dtd"><svg t="1614441333584" class="icon" viewBox="0 0 1024 1024" version="1.1" xmlns="http://www.w3.org/2000/svg" p-id="10858" xmlns:xlink="http://www.w3.org/1999/xlink" width="128" height="128"><defs><style type="text/css"></style></defs><path d="M722 136c-61.83 0-120.54 23.46-165.36 66.06-4.29 4.05-26.88 26.94-44.37 44.7L467.9 202.6C423.05 159.64 364.13 136 302 136 169.67 136 62 243.67 62 376c0 77.28 38.61 135.27 71.7 171.09l297.09 300.12C454.31 870.7 480.41 886 512 886s57.72-15.3 81.33-38.91l296.94-300 2.07-2.31C928.16 500.11 962 457.93 962 376c0-132.33-107.67-240-240-240z" p-id="10859"></path></svg>