<?xml version="1.0" standalone="no"?><!DOCTYPE svg PUBLIC "-//W3C//DTD SVG 1.1//EN" "http://www.w3.org/Graphics/SVG/1.1/DTD/svg11.dtd"><svg t="1614441286553" class="icon" viewBox="0 0 1024 1024" version="1.1" xmlns="http://www.w3.org/2000/svg" p-id="7216" xmlns:xlink="http://www.w3.org/1999/xlink" width="128" height="128"><defs><style type="text/css"></style></defs><path d="M897.8 93.32H126.26c-35.52 0-64.26 28.8-64.26 64.32v548.1c0 35.52 28.74 64.2 64.26 64.2h321.42v96.42H287a32.1 32.1 0 0 0-32.1 32.1v32.1h514.2v-32.1a32.04 32.04 0 0 0-32.1-32.1H576.26V770h321.36c35.52 0 64.32-28.74 64.32-64.2V157.7a64.2 64.2 0 0 0-64.14-64.38zM512 737.9a32.1 32.1 0 1 1 0-64.2 32.1 32.1 0 0 1 0 64.2z m360-95.88H152V180.74h720v461.28z" p-id="7217"></path></svg>