<?xml version="1.0" standalone="no"?><!DOCTYPE svg PUBLIC "-//W3C//DTD SVG 1.1//EN" "http://www.w3.org/Graphics/SVG/1.1/DTD/svg11.dtd"><svg t="1614441301181" class="icon" viewBox="0 0 1024 1024" version="1.1" xmlns="http://www.w3.org/2000/svg" p-id="8337" xmlns:xlink="http://www.w3.org/1999/xlink" width="128" height="128"><defs><style type="text/css"></style></defs><path d="M864.35351563 176.78515625c-22.93945313 3.95507813-46.40625 6.06445313-70.48828126 6.06445313-101.42578125 0-194.32617188-36.82617188-265.95703124-97.73437501-9.31640625-7.91015625-23.02734375-7.91015625-32.34375001 0-71.63085938 60.99609375-164.53125 97.734375-265.95703124 97.734375-23.73046875 0-47.02148438-2.02148438-69.60937501-5.88867187-15.1171875-2.54882813-28.91601563 9.140625-29.00390625 24.52148437-0.17578125 95.88867188-0.3515625 209.26757813-0.3515625 213.13476563 0 413.96484375 346.72851563 520.92773438 378.80859376 529.98046875 1.58203125 0.43945313 3.1640625 0.43945313 4.74609374 0C546.18945313 935.6328125 890.80859375 829.28515625 893.00585938 418.57226562l0.35156249-217.08984374c0-15.46875-13.88671875-27.33398438-29.00390625-24.69726563zM541.8828125 562.00976563v135.79101562c0 16.5234375-13.359375 29.8828125-29.8828125 29.8828125s-29.8828125-13.359375-29.8828125-29.8828125V562.00976563c-59.94140625-13.62304688-104.67773438-67.1484375-104.67773438-131.22070313 0-74.26757813 60.20507813-134.56054688 134.56054688-134.56054688S646.56054688 356.43359375 646.56054688 430.7890625c0 64.07226563-44.73632813 117.68554688-104.67773438 131.22070313z" p-id="8338"></path></svg>