<?xml version="1.0" standalone="no"?><!DOCTYPE svg PUBLIC "-//W3C//DTD SVG 1.1//EN" "http://www.w3.org/Graphics/SVG/1.1/DTD/svg11.dtd"><svg t="1614441267509" class="icon" viewBox="0 0 1024 1024" version="1.1" xmlns="http://www.w3.org/2000/svg" p-id="5815" xmlns:xlink="http://www.w3.org/1999/xlink" width="128" height="128"><defs><style type="text/css"></style></defs><path d="M512 67.168c-247.04 0-448 172.256-448 384 0 116.512 63.04 226.048 174.048 301.408l84.16 52.032c-3.68 23.552-18.752 74.496-33.44 115.936-4.256 12.064-0.928 25.504 8.448 34.176a32.006 32.006 0 0 0 21.728 8.512c4.416 0 8.832-0.896 13.024-2.752 36.416-16.224 147.456-68.96 187.584-125.376C763.136 831.616 960 660.704 960 451.168c0-211.744-200.96-384-448-384z m68.224 476.8H384.96c-17.664 0-32-14.336-32-32s14.336-32 32-32h195.264c17.696 0 32 14.336 32 32s-14.304 32-32 32z m60.704-128H384.96c-17.664 0-32-14.336-32-32s14.336-32 32-32h255.968c17.696 0 32 14.336 32 32s-14.304 32-32 32z" p-id="5816"></path></svg>