<?xml version="1.0" standalone="no"?><!DOCTYPE svg PUBLIC "-//W3C//DTD SVG 1.1//EN" "http://www.w3.org/Graphics/SVG/1.1/DTD/svg11.dtd"><svg t="1614441302655" class="icon" viewBox="0 0 1024 1024" version="1.1" xmlns="http://www.w3.org/2000/svg" p-id="8477" xmlns:xlink="http://www.w3.org/1999/xlink" width="128" height="128"><defs><style type="text/css"></style></defs><path d="M284.22599111 249.97250845c11.41782755-31.32742163 22.64147437-62.24099555 33.94279348-93.11573334 5.90309452-16.13035141 16.45317689-23.63907792 33.554432-23.65121422 106.48871822-0.05218608 212.97743645-0.05218608 319.46615466 0 17.70928355 0.0121363 28.54456889 7.85703822 34.61635793 24.69979022 10.16172089 28.2338797 20.42781392 56.42892325 30.26549571 84.76596148 1.99399348 5.76109985 4.88121837 7.46989037 10.84863526 7.43105423 45.03779555-0.25971675 90.06102755-0.1432083 135.09760948-0.1432083 46.33152475 0 84.05477452 36.93317689 84.11909689 83.25256533 0.19418075 158.4126483 0.44054755 316.81194667-0.12864474 475.22459497-0.19418075 53.15333689-45.21862637 83.49771852-83.951616 83.43339615-247.67025303-0.46603378-495.35506963-0.23301689-743.02532267-0.23301689-43.83387497 0-81.34959408-37.54241897-81.36173036-81.46610253-0.02669985-159.4612243-0.01334992-318.93458489 0-478.39580918 0-44.29990875 37.55455525-81.7767917 81.90543643-81.80227792 47.92380682-0.0121363 95.85974992 0 144.65130193 0z m395.04129897 308.73524147c0.75123675-92.05502103-75.58849422-164.60094578-163.6555283-166.58280295-93.00043852-2.09593837-171.21522725 72.74131911-171.65577481 165.14465185-0.42719763 88.27456475 69.05067141 167.64351525 167.87531851 167.43598459 100.13293985-0.21966697 167.90201837-80.54617125 167.4359846-165.99904711z" p-id="8478"></path></svg>