<?xml version="1.0" standalone="no"?><!DOCTYPE svg PUBLIC "-//W3C//DTD SVG 1.1//EN" "http://www.w3.org/Graphics/SVG/1.1/DTD/svg11.dtd"><svg t="1614441275424" class="icon" viewBox="0 0 1024 1024" version="1.1" xmlns="http://www.w3.org/2000/svg" p-id="6375" xmlns:xlink="http://www.w3.org/1999/xlink" width="128" height="128"><defs><style type="text/css"></style></defs><path d="M900.64 379.808L637.568 123.776c-36.448-35.328-105.76-35.392-142.304 0.096l-327.04 319.904c-56.416 54.72-70.72 76.704-70.72 150.976v143.936c0 132.768 26.976 192 186.912 192h131.872c81.12 0 128.448-46.656 193.952-111.264l290.016-297.696c18.592-17.984 29.248-43.968 29.248-71.264 0-27.104-10.528-52.864-28.864-70.656zM323.008 786.752c-52.928 0-96-43.072-96-96s43.072-96 96-96 96 43.072 96 96-43.072 96-96 96z" p-id="6376"></path></svg>