<?xml version="1.0" standalone="no"?><!DOCTYPE svg PUBLIC "-//W3C//DTD SVG 1.1//EN" "http://www.w3.org/Graphics/SVG/1.1/DTD/svg11.dtd"><svg t="1614441271889" class="icon" viewBox="0 0 1024 1024" version="1.1" xmlns="http://www.w3.org/2000/svg" p-id="6095" xmlns:xlink="http://www.w3.org/1999/xlink" width="128" height="128"><defs><style type="text/css"></style></defs><path d="M512 63.68c-247.04 0-448 172.256-448 384 0 116.48 63.008 226.048 170.592 298.944l87.328 71.52c-3.904 19.328-17.408 60.096-32.64 97.536-4.928 12.096-1.984 25.984 7.36 35.072a32.049 32.049 0 0 0 22.272 8.992c4.384 0 8.8-0.896 12.992-2.752 36.416-16.224 147.488-68.96 187.616-125.376C763.136 828.16 960 657.248 960 447.68c0-211.712-200.96-384-448-384z m219.136 342.88l-128.8 188.864c-5.984 8.736-15.872 13.984-26.432 13.984h-0.448c-10.72-0.16-20.672-5.664-26.464-14.688l-91.584-142.208L385.824 592c-5.664 11.072-16.864 17.408-28.512 17.408-4.896 0-9.92-1.12-14.592-3.52-15.712-8.064-21.92-27.328-13.856-43.072L425.76 373.92a31.925 31.925 0 0 1 26.912-17.344c11.52-0.416 22.272 5.024 28.48 14.656l95.456 148.288L678.24 370.528c9.984-14.592 29.856-18.336 44.48-8.416 14.592 9.92 18.368 29.856 8.416 44.448z" p-id="6096"></path></svg>