<?xml version="1.0" standalone="no"?><!DOCTYPE svg PUBLIC "-//W3C//DTD SVG 1.1//EN" "http://www.w3.org/Graphics/SVG/1.1/DTD/svg11.dtd"><svg t="1614441288344" class="icon" viewBox="0 0 1024 1024" version="1.1" xmlns="http://www.w3.org/2000/svg" p-id="7356" xmlns:xlink="http://www.w3.org/1999/xlink" width="128" height="128"><defs><style type="text/css"></style></defs><path d="M677 339.66666667c36-36 75-90 75-147 0-33-9-60-30-81C683 72.66666667 614 72.66666667 536 72.66666667h-57c-75 0-135 0-174 36-21 21-30 48-30 84 0 60 39 111 72 147C215 408.66666667 125 546.66666667 125 687.66666667c0 261 264 261 390 261s390 0 390-261c0-144-93-279-228-348z m-72 246c18 0 30 12 30 30s-12 30-30 30h-60v30h60c18 0 30 12 30 30s-12 30-30 30h-60v63c0 18-12 30-30 30s-30-12-30-30v-63h-60c-18 0-30-12-30-30s12-30 30-30h60v-30h-60c-18 0-30-12-30-30s12-30 30-30h60V567.66666667l-84-81c-12-12-12-30 0-42 12-12 30-12 42 0l75 72 75-72c12-12 30-12 42 0 12 12 12 30 0 42l-90 87v12h60z" p-id="7357"></path></svg>