<?xml version="1.0" standalone="no"?><!DOCTYPE svg PUBLIC "-//W3C//DTD SVG 1.1//EN" "http://www.w3.org/Graphics/SVG/1.1/DTD/svg11.dtd"><svg t="1614441273689" class="icon" viewBox="0 0 1024 1024" version="1.1" xmlns="http://www.w3.org/2000/svg" p-id="6235" xmlns:xlink="http://www.w3.org/1999/xlink" width="128" height="128"><defs><style type="text/css"></style></defs><path d="M512 64C264.96 64 64 264.96 64 512s200.96 448 448 448 448-200.96 448-448S759.04 64 512 64z m0 768.352c-26.496 0-48-21.504-48-48s21.504-48 48-48 48 21.504 48 48-21.504 48-48 48z m88.576-327.168C572.736 532.992 544 561.728 544 587.552v54.112c0 17.664-14.336 32-32 32s-32-14.336-32-32v-54.112c0-52.352 40-92.352 75.328-127.648C581.216 434.016 608 407.264 608 385.92c0-53.344-43.072-96.736-96-96.736-53.824 0-96 41.536-96 94.56 0 17.664-14.336 32-32 32s-32-14.336-32-32c0-87.424 71.776-158.56 160-158.56S672 297.28 672 385.92c0 47.872-36.32 84.16-71.424 119.264z" p-id="6236"></path></svg>