<?xml version="1.0" standalone="no"?><!DOCTYPE svg PUBLIC "-//W3C//DTD SVG 1.1//EN" "http://www.w3.org/Graphics/SVG/1.1/DTD/svg11.dtd"><svg t="1614441293293" class="icon" viewBox="0 0 1024 1024" version="1.1" xmlns="http://www.w3.org/2000/svg" p-id="7776" xmlns:xlink="http://www.w3.org/1999/xlink" width="128" height="128"><defs><style type="text/css"></style></defs><path d="M942.656 769.376L602.112 159.584c-22.144-39.712-55.104-62.496-90.304-62.496-35.232 0-68.16 22.784-90.368 62.528L81.312 769.344C59.296 808.8 57.056 848.8 75.2 879.744 93.344 910.624 129.664 928 174.88 928h674.24c45.184 0 81.536-17.376 99.648-48.256 18.176-30.944 15.904-70.912-6.112-110.368zM480 320c0-17.664 14.336-32 32-32s32 14.336 32 32v288c0 17.696-14.336 32-32 32s-32-14.304-32-32V320z m32 512.128c-26.528 0-48-21.504-48-48s21.472-48 48-48 48 21.504 48 48-21.472 48-48 48z" p-id="7777"></path></svg>