<?xml version="1.0" standalone="no"?><!DOCTYPE svg PUBLIC "-//W3C//DTD SVG 1.1//EN" "http://www.w3.org/Graphics/SVG/1.1/DTD/svg11.dtd"><svg t="1614441312875" class="icon" viewBox="0 0 1024 1024" version="1.1" xmlns="http://www.w3.org/2000/svg" p-id="9177" xmlns:xlink="http://www.w3.org/1999/xlink" width="128" height="128"><defs><style type="text/css"></style></defs><path d="M713 221c-12-9-27-6-36 0-9 9-15 24-9 36 6 12 9 27 12 42C599 110 464 68 458 65c-9-3-21 0-27 6-9 6-12 18-9 27 12 81-24 177-108 291-6-24-15-48-30-75-9-9-21-15-33-12-15 3-24 12-24 27-3 45-24 87-48 132C158 500 137 542 128 587c-30 141 93 309 219 357 9 3 18 6 30 9-24-18-39-48-45-90C308 680 506 632 515 464c144 99 210 315 129 474 3 0 6-3 9-3 0 0 3 0 3-3 153-84 237-195 243-324 15-198-153-366-186-387z" p-id="9178"></path></svg>