<?xml version="1.0" standalone="no"?><!DOCTYPE svg PUBLIC "-//W3C//DTD SVG 1.1//EN" "http://www.w3.org/Graphics/SVG/1.1/DTD/svg11.dtd"><svg t="1614441319409" class="icon" viewBox="0 0 1099 1024" version="1.1" xmlns="http://www.w3.org/2000/svg" p-id="9737" xmlns:xlink="http://www.w3.org/1999/xlink" width="137.375" height="128"><defs><style type="text/css"></style></defs><path d="M427.85156025 795.07105396h113.36703157c13.53224006 0 23.33620992-7.87079269 23.3362099-21.1268646v-50.40069005c0-12.15139925-8.69929718-19.05560336-24.30279849-19.05560335h-113.22894749c-14.7749968 0-22.23153725 10.49439025-22.23153724 21.81728501v46.67241982c-0.13808409 10.63247434 11.46097883 22.09345317 23.06004175 22.09345317z m222.72962475 0h161.00603997c14.49882864 0 23.88854624-8.00887677 23.88854623-19.60793969v-50.40069004c0-12.01331517-8.28504494-20.57452827-24.30279849-20.57452827h-161.42029221c-14.36074457 0-23.47429398 8.28504494-23.47429398 20.43644418v44.32499042c0 14.08457639 8.42312903 25.8217234 24.30279848 25.8217234z m-342.17235594-746.20638078l-255.04130003 469.07162758v393.53963458c0 37.97312263 22.64578949 58.40956682 62.96634153 58.40956681h864.82060749c35.07335691 0 56.33830558-21.26494868 56.33830557-55.92405334V512.9652738l-255.86980452-464.10060062h-473.21415004z m424.05621675 77.18900201l214.72074799 384.14991696h-796.88323898l210.99247775-384.14991696h371.17001324z m222.17728843 765.95240454h-820.63370114V596.78231176h820.63370114v295.22376797z" p-id="9738"></path></svg>