<?xml version="1.0" standalone="no"?><!DOCTYPE svg PUBLIC "-//W3C//DTD SVG 1.1//EN" "http://www.w3.org/Graphics/SVG/1.1/DTD/svg11.dtd"><svg t="1614441299581" class="icon" viewBox="0 0 1024 1024" version="1.1" xmlns="http://www.w3.org/2000/svg" p-id="8196" xmlns:xlink="http://www.w3.org/1999/xlink" width="128" height="128"><defs><style type="text/css"></style></defs><path d="M316.2048 750.35093333h398.3808v74.66666667H316.2048z m286.86506667-441.66933333l208.5632 361.23093333-64.66133334 37.33333334-208.5632-361.232z m-183.13173334 1.72906667l64.66133334 37.33333333-210.06186667 363.8272-64.66133333-37.33333333z" p-id="8197"></path><path d="M512 377.04746667c-79.4016 0-144-64.5984-144-144s64.5984-144 144-144 144 64.5984 144 144-64.5984 144-144 144z m0-213.33333334c-38.2304 0-69.33333333 31.10293333-69.33333333 69.33333334s31.10293333 69.33333333 69.33333333 69.33333333 69.33333333-31.10293333 69.33333333-69.33333333-31.10293333-69.33333333-69.33333333-69.33333334zM211.6832 922.66666667c-79.4016 0-144-64.5984-144-144s64.5984-144 144-144 144 64.5984 144 144-64.5984 144-144 144z m0-213.33333334c-38.2304 0-69.33333333 31.10293333-69.33333333 69.33333334s31.10293333 69.33333333 69.33333333 69.33333333 69.33333333-31.10293333 69.33333333-69.33333333-31.10293333-69.33333333-69.33333333-69.33333334z m604.22293333 213.33333334c-79.4016 0-144-64.5984-144-144s64.5984-144 144-144 144 64.5984 144 144-64.59733333 144-144 144z m0-213.33333334c-38.2304 0-69.33333333 31.10293333-69.33333333 69.33333334s31.10293333 69.33333333 69.33333333 69.33333333 69.33333333-31.10293333 69.33333334-69.33333333-31.10293333-69.33333333-69.33333334-69.33333334z" p-id="8198"></path></svg>