<?xml version="1.0" standalone="no"?><!DOCTYPE svg PUBLIC "-//W3C//DTD SVG 1.1//EN" "http://www.w3.org/Graphics/SVG/1.1/DTD/svg11.dtd"><svg t="1614441327777" class="icon" viewBox="0 0 1024 1024" version="1.1" xmlns="http://www.w3.org/2000/svg" p-id="10438" xmlns:xlink="http://www.w3.org/1999/xlink" width="128" height="128"><defs><style type="text/css"></style></defs><path d="M511.05215525 64.30416592c-247.06950637 0-448.32692148 200.94187141-448.32692147 448.32692149 0 247.07072 200.94065778 448.32692148 448.32692147 448.32692148s448.32692148-200.94065778 448.3269215-448.32692148c0-247.38505008-201.25741511-448.32692148-448.3269215-448.32692149z m0 817.35164208c-36.01810015 0-83.40912355-71.71944297-108.36984414-193.67465718l216.42293097 0.3155437c-24.64396325 121.63967052-72.03498667 193.35911348-108.05308683 193.35911348z m-120.05952473-272.66010075c-3.15907792-30.3310317-4.7392237-62.55775289-4.7392237-96.68016355 0-35.70134282 1.89568948-69.50699615 5.37152473-101.10262992l239.48553482 0.3155437c3.47583525 31.28009008 5.05598103 65.08574341 5.05598104 100.78708622 0 34.43795437-1.58014578 66.66467555-4.73922371 96.99570727l-240.43459318-0.31554372z m120.05952473-465.7036705c35.70134282 0 82.46127882 70.45605452 107.42199942 189.56652088l-214.84399882-0.31554371c24.96072059-119.11168 72.0362003-189.25097718 107.4219994-189.25097717z m199.04618193 268.55317807l156.39195497 0.3155437c9.1629037 31.91117748 13.90212741 65.71804445 13.9021274 100.47154251 0 33.80565333-4.42368 66.34913185-12.95428266 97.31125097l-156.7087123-0.3155437c2.84353422-31.59563378 4.42368-64.13789867 4.42368-96.99570727 0-34.43795437-1.89568948-68.24482133-5.05476741-100.78708621z m123.53414637-78.66989985l-134.59273955-0.31554372c-8.53060267-45.49654755-20.22028325-87.51725985-35.07025541-124.1664474-5.68706845-14.53442845-12.0052243-27.80425482-18.64135111-40.12623644 80.25125925 31.27887645 146.91593482 90.04525037 188.30434607 164.60822756zM376.77495941 168.56708741c-6.63491318 12.32198163-12.63752533 25.9073517-18.64135111 40.12502281-14.84875852 36.65040118-26.53843911 78.35435615-35.06904178 123.8509037l-134.27598222-0.3155437c41.70395497-73.93188978 108.05308682-132.38272 187.98637511-163.66038281zM155.92956208 411.21291378l156.07641125 0.3155437c-3.15907792 32.85902222-4.7392237 66.66467555-4.7392237 101.10384355 0 32.85780859 1.58014578 65.08452978 4.42368 96.67894994l-154.81302281-0.31554372v7.58275793c-9.79399111-32.85902222-14.84997215-67.92927763-14.84997215-103.94737777-0.3155437-35.38458548 4.7392237-69.19145245 13.90212741-101.41817363z m30.3310317 276.45269333l136.1716717 0.31554371c8.5318163 47.07669333 20.53704059 90.36079408 35.70255644 128.2745837 5.68706845 14.53321482 12.0052243 27.80304118 18.64135111 40.12502281-81.5146477-31.91117748-149.127168-92.25648355-190.51557925-168.71515022z m459.0675437 168.71515022c6.63612682-12.32198163 12.63873897-25.9073517 18.64135111-40.12502281 15.16551585-37.59824592 27.17195378-80.88234667 35.70255644-127.64228267l135.856128 0.3155437c-41.38841125 75.82757925-108.68538785 135.5405843-190.20003555 167.45176178z" p-id="10439"></path></svg>