<?xml version="1.0" standalone="no"?><!DOCTYPE svg PUBLIC "-//W3C//DTD SVG 1.1//EN" "http://www.w3.org/Graphics/SVG/1.1/DTD/svg11.dtd"><svg t="1614441335315" class="icon" viewBox="0 0 1024 1024" version="1.1" xmlns="http://www.w3.org/2000/svg" p-id="10998" xmlns:xlink="http://www.w3.org/1999/xlink" width="128" height="128"><defs><style type="text/css"></style></defs><path d="M884.56851911 177.49090608C828.90296889 115.61278578 634.72222815 97.74815763 512 97.74815763s-316.90296889 17.86462815-372.56851911 79.74274845C130.11080533 181.37452089 123.63851852 190.43669333 123.63851852 201.31081482v647.26873126c0 10.87412148 6.47228682 19.93629392 15.79296237 23.81990874C195.09703111 934.27878875 389.27777185 952.14341689 512 952.14341689s316.90296889-17.86462815 372.56851911-79.74396207c9.32067555-3.88361482 15.79296237-12.94578725 15.79296237-23.81990874V201.31081482c0-10.87412148-6.47228682-19.93629392-15.79296237-23.81990874z m-35.98897303 450.49931851c-7.50751289 22.78468267-129.19451497 65.24472889-336.57954608 65.24472889-207.90325097 0-329.58903941-42.46004622-336.57954608-64.72650903V484.29647645C254.90469925 525.20429037 408.69584592 537.89036089 512 537.89036089s257.09530075-12.68607052 336.57954608-53.59388444v143.69374814z m0-207.12531437c-7.50751289 22.78346903-129.19451497 65.24472889-336.57954608 65.24472889-207.90325097 0-329.58903941-42.46125985-336.57954608-64.72772266V277.17116208c79.48424533 40.9066003 233.275392 53.59388445 336.57954608 53.59388444s257.09530075-12.68728415 336.57954608-53.59388444v143.69374814zM512 149.52887941c206.0900883 0 327.51858725 41.94304 336.57954608 64.72772267C839.77709037 237.04007111 718.34980503 278.98311111 512 278.98311111c-207.38503111 0-329.07203318-42.46125985-336.57954608-63.94978608v-0.25971673c7.50751289-22.78346903 129.19451497-65.24472889 336.57954608-65.24472889zM512 900.36148148c-207.90325097 0-329.58903941-42.46125985-336.57954608-64.72650903V691.42300445C254.90469925 732.33081837 408.69584592 745.01688889 512 745.01688889s257.09530075-12.68607052 336.57954608-53.59388444v143.69374814C841.07203318 857.90022163 719.38503111 900.36148148 512 900.36148148z" p-id="10999"></path></svg>