<?xml version="1.0" standalone="no"?><!DOCTYPE svg PUBLIC "-//W3C//DTD SVG 1.1//EN" "http://www.w3.org/Graphics/SVG/1.1/DTD/svg11.dtd"><svg t="1614441291674" class="icon" viewBox="0 0 1099 1024" version="1.1" xmlns="http://www.w3.org/2000/svg" p-id="7636" xmlns:xlink="http://www.w3.org/1999/xlink" width="137.375" height="128"><defs><style type="text/css"></style></defs><path d="M1011.81895111 373.64622222v-73.78868147l-87.5026963 0.24272592v-114.44527408c0-29.00574815-14.92764445-45.26838518-43.93339259-45.26838518h-105.46441481V50.82074075h-74.63822223v89.56586666h-112.13937777V50.82074075h-74.63822223l-0.12136296 89.56586666h-112.13937778l0.24272592-89.56586666h-75.00231111l0.12136297 89.56586666h-98.18263704c-36.0448 0-50.85108148 16.26263703-50.60835555 53.88515556l-0.72817778 105.8285037h-89.08041482V373.64622222h89.08041482v103.03715556l-89.08041482-0.12136296v74.63822221l89.08041482 0.24272594v104.61487406h-89.08041482v73.30322964h89.08041482v100.00308148c0 41.26340741 16.62672592 58.37558518 58.0114963 58.37558518h91.50767407l-0.12136297 85.92497778h74.51685926l0.3640889-85.92497778h112.13937777v85.92497778h74.88094815l-0.12136297-85.92497778h112.13937779l-0.24272593 85.92497778h74.88094814l0.12136297-85.92497778h99.88171852c33.49617778 0 49.51608889-29.4912 49.51608889-58.37558518v-100.00308148h87.50269629v-73.30322964h-87.74542222v-104.61487406h87.5026963v-74.51685927l-87.5026963-0.24272592V373.64622222h87.5026963z m-162.26228148 439.33392593h-597.7125926V215.14619259h597.83395555V812.98014815z m-472.83010371-94.29902223h358.99164444c14.32082963 0 19.53943703-9.8304 19.53943705-22.81623703V336.0237037c0-15.29173333-10.43721482-23.78714075-22.81623705-23.78714073h-359.47709628c-18.6898963 0-24.15122963 6.91768889-24.15122964 25.72894814v352.68077037c0 18.6898963 9.22358518 28.03484445 27.91348148 28.03484444z" p-id="7637"></path></svg>