<?xml version="1.0" standalone="no"?><!DOCTYPE svg PUBLIC "-//W3C//DTD SVG 1.1//EN" "http://www.w3.org/Graphics/SVG/1.1/DTD/svg11.dtd"><svg t="1614441295630" class="icon" viewBox="0 0 1024 1024" version="1.1" xmlns="http://www.w3.org/2000/svg" p-id="7916" xmlns:xlink="http://www.w3.org/1999/xlink" width="128" height="128"><defs><style type="text/css"></style></defs><path d="M336.11889778 554.09208889h348.41941333v-87.09233778H336.11889778v87.09233778zM157.53671111 510.51178667c0-100.16768 78.34851555-178.57763555 178.58104889-178.57763556h130.66467555v-82.75057778H336.11889778c-143.74456889 0-261.32707555 117.58478222-261.32707556 261.32821334 0 143.74229333 117.58250667 261.32821333 261.32707556 261.32821333h130.66467555v-82.74830222H336.11889778c-100.23253333 0-178.58104889-78.47139555-178.58104889-178.57991111M684.53831111 249.18471111H553.87363555v82.75057778h130.66467556c100.16312889 0 178.51619555 78.40995555 178.51619556 178.57763556 0 100.10737778-78.35192889 178.57991111-178.51619556 178.5799111H553.87363555v82.74830223h130.66467556c143.74343111 0 261.32821333-117.58592 261.32821334-261.32821333 0-143.74343111-117.58478222-261.32821333-261.32821334-261.32821334" p-id="7917"></path></svg>