<?xml version="1.0" standalone="no"?><!DOCTYPE svg PUBLIC "-//W3C//DTD SVG 1.1//EN" "http://www.w3.org/Graphics/SVG/1.1/DTD/svg11.dtd">
<svg
	t="1694429343932"
	class="icon"
	viewBox="0 0 1024 1024"
	version="1.1"
	xmlns="http://www.w3.org/2000/svg"
	p-id="2682"
	xmlns:xlink="http://www.w3.org/1999/xlink"
	width="64"
	height="64"
>
	<path
		d="M682.666667 85.333333H277.333333a128 128 0 0 0-128 128v597.333334a128 128 0 0 0 128 128h469.333334a128 128 0 0 0 128-128V298.666667L682.666667 85.333333z"
		p-id="2683"
	></path>
	<path
		d="M680.917333 625.344V369.28c0-5.077333 0-8.469333-1.706666-13.568-5.098667-18.645333-23.744-28.821333-42.389334-23.744L401.066667 398.122667a36.650667 36.650667 0 0 0-25.450667 35.626666v225.536c-11.861333-1.706667-27.114667-1.706667-40.704 5.077334-28.821333 13.589333-44.096 44.096-32.213333 67.84 10.176 23.744 44.096 32.213333 72.917333 18.645333 15.274667-6.762667 27.136-18.645333 32.213333-32.213333v-1.706667c3.413333-8.469333 3.413333-18.645333 1.706667-27.136v-128.896l235.733333-64.426667v101.76c-11.882667-3.413333-27.136-1.706667-40.704 5.077334-28.842667 13.568-44.096 44.096-32.213333 67.84 10.176 23.744 44.074667 32.213333 72.917333 18.645333a62.741333 62.741333 0 0 0 32.213334-33.92v-1.685333c5.077333-10.176 6.805333-20.352 3.413333-28.842667z m-33.92-166.186667l-234.026666 64.448V465.92c3.392 0 6.784 0 8.469333-1.685333l225.536-62.741334v57.664z"
		p-id="2684"
	></path>
	<path
		d="M680.917333 614.677333V358.613333c0-5.077333 0-8.469333-1.706666-13.568-5.098667-18.645333-23.744-28.821333-42.389334-23.744L401.066667 387.456a36.650667 36.650667 0 0 0-25.450667 35.626667v225.536c-11.861333-1.706667-27.114667-1.706667-40.704 5.077333-28.821333 13.589333-44.096 44.096-32.213333 67.84 10.176 23.744 44.096 32.213333 72.917333 18.645333 15.274667-6.762667 27.136-18.645333 32.213333-32.213333v-1.706667c3.413333-8.469333 3.413333-18.645333 1.706667-27.136v-128.896l235.733333-64.426666v101.76c-11.882667-3.413333-27.136-1.706667-40.704 5.077333-28.842667 13.568-44.096 44.096-32.213333 67.84 10.176 23.744 44.074667 32.213333 72.917333 18.645333a62.741333 62.741333 0 0 0 32.213334-33.92v-1.685333c5.077333-10.176 6.805333-20.352 3.413333-28.842667z m-33.92-166.186666l-234.026666 64.448V455.253333c3.392 0 6.784 0 8.469333-1.685333l225.536-62.741333v57.664z"
		fill="#FFFFFF"
		p-id="2685"
	></path>
	<path
		d="M682.666667 85.333333l144 160L874.666667 298.666667h-128a64 64 0 0 1-64-64V85.333333z"
		p-id="2686"
	></path>
</svg>
