<?xml version="1.0" standalone="no"?><!DOCTYPE svg PUBLIC "-//W3C//DTD SVG 1.1//EN" "http://www.w3.org/Graphics/SVG/1.1/DTD/svg11.dtd">
<svg
	t="1694429323086"
	class="icon"
	viewBox="0 0 1024 1024"
	version="1.1"
	xmlns="http://www.w3.org/2000/svg"
	p-id="1888"
	xmlns:xlink="http://www.w3.org/1999/xlink"
	width="64"
	height="64"
>
	<path
		d="M682.666667 85.333333H277.333333a128 128 0 0 0-128 128v597.333334a128 128 0 0 0 128 128h469.333334a128 128 0 0 0 128-128V298.666667L682.666667 85.333333z"
		p-id="1889"
	></path>
	<path
		d="M451.157333 404.352l62.570667 105.770667h2.432l62.869333-105.749334h74.090667l-94.698667 155.136 96.832 155.157334h-75.456l-63.637333-105.92h-2.432L450.090667 714.666667h-75.157334l97.130667-155.157334-95.317333-155.157333h74.410666z"
		p-id="1890"
	></path>
	<path
		d="M451.157333 393.685333l62.570667 105.770667h2.432l62.869333-105.749333h74.090667l-94.698667 155.136L655.253333 704h-75.456l-63.637333-105.92h-2.432L450.090667 704h-75.157334l97.130667-155.157333-95.317333-155.157334h74.410666z"
		fill="#FFFFFF"
		p-id="1891"
	></path>
	<path
		d="M682.666667 85.333333l144 160L874.666667 298.666667h-128a64 64 0 0 1-64-64V85.333333z"
		p-id="1892"
	></path>
</svg>
