<?xml version="1.0" standalone="no"?><!DOCTYPE svg PUBLIC "-//W3C//DTD SVG 1.1//EN" "http://www.w3.org/Graphics/SVG/1.1/DTD/svg11.dtd">
<svg
	t="1694429715369"
	class="icon"
	viewBox="0 0 1024 1024"
	version="1.1"
	xmlns="http://www.w3.org/2000/svg"
	p-id="3005"
	xmlns:xlink="http://www.w3.org/1999/xlink"
	width="64"
	height="64"
>
	<path
		d="M682.666667 85.333333H277.333333a128 128 0 0 0-128 128v597.333334a128 128 0 0 0 128 128h469.333334a128 128 0 0 0 128-128V298.666667L682.666667 85.333333z"
		p-id="3006"
	></path>
	<path
		d="M682.666667 85.333333l144 160L874.666667 298.666667h-128a64 64 0 0 1-64-64V85.333333z"
		p-id="3007"
	></path>
	<path
		d="M477.866667 400.832c0-38.784-31.850667-70.165333-71.125334-70.165333-39.338667 0-71.253333 31.424-71.253333 70.165333 0 38.698667 31.914667 70.101333 71.253333 70.101333 39.274667 0 71.125333-31.402667 71.125334-70.101333z m-171.306667 308.48c4.053333 3.456 9.258667 5.354667 14.656 5.354667h1.109333c22.976 0 402.474667-0.085333 403.008-0.042667 0 0 0-90.752-0.042666-163.221333a166662.101333 166662.101333 0 0 1-0.128-127.552c-24.149333-51.413333-64.213333-6.058667-71.957334 3.562666l-151.914666 181.632-61.717334-65.962666a22.784 22.784 0 0 0-30.570666 3.456l-104.896 131.349333a22.122667 22.122667 0 0 0 2.453333 31.424z"
		p-id="3008"
	></path>
	<path
		d="M477.866667 390.165333C477.866667 351.36 446.016 320 406.741333 320c-39.338667 0-71.253333 31.424-71.253333 70.165333 0 38.698667 31.914667 70.101333 71.253333 70.101334 39.274667 0 71.125333-31.402667 71.125334-70.101334z m-171.306667 308.48c4.053333 3.456 9.258667 5.354667 14.656 5.354667h1.109333c22.976 0 402.474667-0.085333 403.008-0.042667 0 0 0-90.752-0.042666-163.221333a166662.101333 166662.101333 0 0 1-0.128-127.552c-24.149333-51.413333-64.213333-6.058667-71.957334 3.562667l-151.914666 181.632-61.717334-65.962667a22.784 22.784 0 0 0-30.570666 3.456l-104.896 131.349333a22.122667 22.122667 0 0 0 2.453333 31.424z"
		fill="#FFFFFF"
		p-id="3009"
	></path>
</svg>
