<?xml version="1.0" standalone="no"?><!DOCTYPE svg PUBLIC "-//W3C//DTD SVG 1.1//EN" "http://www.w3.org/Graphics/SVG/1.1/DTD/svg11.dtd">
<svg
	t="1694429327035"
	class="icon"
	viewBox="0 0 1024 1024"
	version="1.1"
	xmlns="http://www.w3.org/2000/svg"
	p-id="2045"
	xmlns:xlink="http://www.w3.org/1999/xlink"
	width="64"
	height="64"
>
	<path
		d="M682.666667 85.333333H277.333333a128 128 0 0 0-128 128v597.333334a128 128 0 0 0 128 128h469.333334a128 128 0 0 0 128-128V298.666667L682.666667 85.333333z"
		p-id="2046"
	></path>
	<path
		d="M410.965333 714.666667V404.352h122.432c23.530667 0 43.584 4.501333 60.16 13.504a91.306667 91.306667 0 0 1 37.866667 37.12c8.789333 15.744 13.184 33.92 13.184 54.528s-4.437333 38.805333-13.333333 54.549333c-8.896 15.765333-21.76 28.032-38.634667 36.821334-16.768 8.789333-37.077333 13.184-60.906667 13.184h-78.037333V561.493333h67.413333c12.629333 0 23.04-2.176 31.232-6.528 8.277333-4.437333 14.442667-10.56 18.474667-18.346666 4.138667-7.872 6.208-16.896 6.208-27.093334 0-10.304-2.069333-19.306667-6.186667-26.986666a41.472 41.472 0 0 0-18.496-18.026667c-8.298667-4.352-18.794667-6.506667-31.530666-6.506667H476.586667V714.666667h-65.621334z"
		p-id="2047"
	></path>
	<path
		d="M410.965333 704V393.685333h122.432c23.530667 0 43.584 4.501333 60.16 13.504a91.306667 91.306667 0 0 1 37.866667 37.12c8.789333 15.744 13.184 33.92 13.184 54.528s-4.437333 38.805333-13.333333 54.549334c-8.896 15.765333-21.76 28.032-38.634667 36.821333-16.768 8.789333-37.077333 13.184-60.906667 13.184h-78.037333V550.826667h67.413333c12.629333 0 23.04-2.176 31.232-6.528 8.277333-4.437333 14.442667-10.56 18.474667-18.346667 4.138667-7.872 6.208-16.896 6.208-27.093333 0-10.304-2.069333-19.306667-6.186667-26.986667a41.472 41.472 0 0 0-18.496-18.026667c-8.298667-4.352-18.794667-6.506667-31.530666-6.506666H476.586667V704h-65.621334z"
		fill="#FFFFFF"
		p-id="2048"
	></path>
	<path
		d="M682.666667 85.333333l144 160L874.666667 298.666667h-128a64 64 0 0 1-64-64V85.333333z"
		p-id="2049"
	></path>
</svg>
