<?xml version="1.0" standalone="no"?><!DOCTYPE svg PUBLIC "-//W3C//DTD SVG 1.1//EN" "http://www.w3.org/Graphics/SVG/1.1/DTD/svg11.dtd">
<svg
	t="1694501608667"
	class="icon"
	viewBox="0 0 1024 1024"
	version="1.1"
	xmlns="http://www.w3.org/2000/svg"
	p-id="1607"
	xmlns:xlink="http://www.w3.org/1999/xlink"
	width="64"
	height="64"
>
	<path
		d="M679.5727916 90.125H279.58982055C209.83140008 90.125 153.27994046 146.67645962 153.27994046 216.4348801v589.44779241c0 69.75842047 56.55145962 126.3098801 126.30988009 126.3098801h463.13791151c69.75842047 0 126.3098801-56.55145962 126.30988009-126.3098801v-505.2395212L679.5727916 90.125z"
		p-id="1608"
	></path>
	<path
		d="M679.5727916 90.125l142.09861541 157.88734992 47.36620514 52.63080138h-126.30988009c-34.88173655 0-63.15494046-28.27825571-63.15494046-63.15494046V90.125z"
		p-id="1609"
	></path>
	<path
		d="M512 332.63996982c117.19535888 0 212.2005987 95.00523982 212.2005987 212.20059869s-95.00523982 212.2005987-212.2005987 212.20059952-212.2005987-95.00523982-212.2005987-212.20059952 95.00523982-212.2005987 212.2005987-212.20059869z m-23.21070392 138.05669943a30.31437112 30.31437112 0 0 0-30.31437112 30.31437113v96.77863009a30.31437112 30.31437112 0 0 0 47.51777691 24.9588328l70.20808402-48.38678916a30.31437112 30.31437112 0 0 0 0-49.91766477l-70.20808402-48.39184094a30.31437112 30.31437112 0 0 0-17.20340579-5.35553915z"
		fill="#FFFFFF"
		p-id="1610"
	></path>
</svg>
