<?xml version="1.0" standalone="no"?><!DOCTYPE svg PUBLIC "-//W3C//DTD SVG 1.1//EN" "http://www.w3.org/Graphics/SVG/1.1/DTD/svg11.dtd">
<svg
	t="1694429334260"
	class="icon"
	viewBox="0 0 1024 1024"
	version="1.1"
	xmlns="http://www.w3.org/2000/svg"
	p-id="2359"
	xmlns:xlink="http://www.w3.org/1999/xlink"
	width="64"
	height="64"
>
	<path
		d="M682.666667 85.333333H277.333333a128 128 0 0 0-128 128v597.333334a128 128 0 0 0 128 128h469.333334a128 128 0 0 0 128-128V298.666667L682.666667 85.333333z"
		p-id="2360"
	></path>
	<path
		d="M385.792 693.333333L305.92 414.08h64.490667l46.229333 194.026667h2.325333l50.986667-194.048h55.253333L576 608.512h2.453333l46.229334-194.453333h64.512L609.28 693.333333h-57.536l-53.184-182.592h-2.176L443.349333 693.333333h-57.557333z"
		p-id="2361"
	></path>
	<path
		d="M385.792 682.666667L305.92 403.413333h64.490667l46.229333 194.026667h2.325333l50.986667-194.048h55.253333L576 597.845333h2.453333l46.229334-194.453333h64.512L609.28 682.666667h-57.536l-53.184-182.592h-2.176L443.349333 682.666667h-57.557333z"
		fill="#FFFFFF"
		p-id="2362"
	></path>
	<path
		d="M682.666667 85.333333l144 160L874.666667 298.666667h-128a64 64 0 0 1-64-64V85.333333z"
		p-id="2363"
	></path>
</svg>
