<?xml version="1.0" standalone="no"?>
<!DOCTYPE svg PUBLIC "-//W3C//DTD SVG 1.1//EN" "http://www.w3.org/Graphics/SVG/1.1/DTD/svg11.dtd">
<svg t="1676620708721" class="icon" viewBox="0 0 1024 1024" version="1.1"
    xmlns="http://www.w3.org/2000/svg" p-id="1852" xmlns:xlink="http://www.w3.org/1999/xlink"
    width="64" height="64">
    <path
        d="M512 69.24190476C266.24 69.24190476 69.24190476 266.24 69.24190476 512S266.24 956.70857143 512 956.70857143 956.70857143 757.76 956.70857143 512 757.76 69.24190476 512 69.24190476z m130.68190476 95.57333334c-33.15809524 19.5047619-72.16761905 52.66285714-89.72190476 105.32571428-5.85142857 9.75238095-5.85142857 11.70285714-42.91047619 5.85142857-21.4552381-5.85142857-48.76190476-9.75238095-70.21714286 5.85142857-13.65333333 9.75238095-21.4552381 27.30666667-25.35619047 50.71238096-3.90095238 29.25714286 3.90095238 60.4647619 19.5047619 89.72190476 3.90095238 9.75238095 7.80190476 13.65333333 9.75238095 19.5047619 5.85142857 13.65333333 0 27.30666667-3.90095238 31.20761905-1.95047619-1.95047619-5.85142857-3.90095238-7.80190476-9.75238095-46.81142857-62.4152381-109.22666667-68.26666667-130.68190476-70.21714286-7.80190476 0-29.25714286-3.90095238-37.05904762-13.65333333-5.85142857-9.75238095-3.90095238-25.35619048 5.85142857-44.86095238 13.65333333-37.05904762 13.65333333-66.31619048-1.95047619-85.82095238-3.90095238-3.90095238-5.85142857-7.80190476-9.75238095-9.75238096 68.26666667-62.4152381 157.98857143-99.47428571 253.56190476-99.47428571 46.81142857 0 89.72190476 7.80190476 130.68190476 25.35619048zM139.45904762 512c0-87.77142857 31.20761905-171.64190476 85.82095238-236.00761905 1.95047619 0 3.90095238 1.95047619 5.85142857 1.95047619 1.95047619 1.95047619 3.90095238 9.75238095-5.85142857 33.15809524-15.60380952 37.05904762-15.60380952 68.26666667-1.95047619 91.67238095 19.5047619 33.15809524 62.4152381 39.00952381 76.06857143 40.96 27.30666667 3.90095238 64.36571429 9.75238095 93.62285714 48.76190477 15.60380952 21.4552381 35.10857143 29.25714286 50.71238095 29.25714285 9.75238095 0 15.60380952-1.95047619 23.40571429-5.85142857 29.25714286-15.60380952 42.91047619-58.51428571 29.25714286-97.52380952-1.95047619-7.80190476-7.80190476-17.55428571-11.70285715-29.25714286-9.75238095-19.5047619-13.65333333-39.00952381-11.70285714-58.51428571 0-9.75238095 3.90095238-11.70285714 1.95047619-11.70285715 3.90095238-1.95047619 19.5047619 1.95047619 29.25714286 3.90095238 29.25714286 5.85142857 81.92 17.55428571 103.37523809-40.96 19.5047619-54.61333333 76.06857143-83.87047619 101.42476191-93.62285714 105.32571429 68.26666667 177.49333333 187.24571429 177.49333333 321.82857143 0 46.81142857-9.75238095 91.67238095-25.35619047 132.63238095-3.90095238-9.75238095-9.75238095-19.5047619-13.65333334-29.25714286-15.60380952-19.5047619-37.05904762-31.20761905-64.36571428-31.20761904-13.65333333 0-23.40571429-13.65333333-37.05904762-46.81142857-5.85142857-11.70285714-11.70285714-27.30666667-21.4552381-39.00952381-15.60380952-25.35619048-60.4647619-48.76190476-109.22666666-48.76190477-29.25714286 1.95047619-85.82095238 13.65333333-126.78095239 89.72190477-42.91047619 81.92 15.60380952 146.28571429 60.46476191 191.14666666 9.75238095 9.75238095 21.4552381 23.40571429 29.25714286 31.20761905 44.86095238 56.56380952 42.91047619 89.72190476 37.05904762 109.22666667-33.15809524 7.80190476-68.26666667 11.70285714-103.3752381 11.70285714-206.75047619 3.90095238-372.54095238-161.88952381-372.54095238-368.64z m530.52952381 337.43238095c-1.95047619-29.25714286-11.70285714-70.21714286-50.71238095-118.97904762-9.75238095-11.70285714-19.5047619-23.40571429-31.20761905-35.10857143-46.81142857-48.76190476-74.11809524-87.77142857-50.71238095-128.73142857 21.4552381-39.00952381 48.76190476-58.51428571 79.96952381-60.4647619 31.20761905-1.95047619 56.56380952 15.60380952 60.4647619 23.40571428 7.80190476 9.75238095 11.70285714 23.40571429 17.55428571 33.15809524 17.55428571 35.10857143 35.10857143 74.11809524 85.82095239 76.06857143 9.75238095 0 17.55428571 3.90095238 23.40571428 9.75238095 5.85142857 7.80190476 15.60380952 29.25714286 9.75238095 85.82095238-39.00952381 46.81142857-87.77142857 87.77142857-144.33523809 115.07809524z"
        p-id="1853"></path>
</svg>