<?xml version="1.0" standalone="no"?><!DOCTYPE svg PUBLIC "-//W3C//DTD SVG 1.1//EN" "http://www.w3.org/Graphics/SVG/1.1/DTD/svg11.dtd"><svg t="1614441265116" class="icon" viewBox="0 0 1024 1024" version="1.1" xmlns="http://www.w3.org/2000/svg" p-id="5675" xmlns:xlink="http://www.w3.org/1999/xlink" width="128" height="128"><defs><style type="text/css"></style></defs><path d="M512.13653333 899.75239111H98.48604445c-17.72657778 0-23.19928889-5.24515555-22.96035556-22.8352 0.32995555-25.14488889-0.9216-50.49457778 1.8432-75.38915556 9.92142222-89.15626667 78.21084445-161.57582222 164.27235556-174.54648888 11.42328889-1.71804445 23.08551111-2.63964445 34.64533333-2.65102222 157.16124445-0.17066667 314.31111111-0.11377778 471.47235555-0.11377778 100.16995555 0 183.10257778 69.95057778 197.56373334 169.19893333 4.33493333 29.7984 2.62826667 60.49564445 3.16302222 90.79466667 0.14791111 8.23751111-6.98595555 14.57493333-15.29173334 15.37137778-2.93546667 0.28444445-5.92782222 0.17066667-8.88604444 0.17066666H512.13653333z m201.18186667-560.44657778c0 121.05955555-97.60995555 218.30542222-219.63662222 217.69102222-123.0848-0.6144-218.16888889-102.33173333-216.73528889-220.88817777 1.39946667-115.87128889 97.05244445-217.30417778 222.50382222-215.08551111 121.32124445 2.1504 215.26755555 102.68444445 213.86808889 218.28266666z" p-id="5676"></path></svg>