<?xml version="1.0" standalone="no"?><!DOCTYPE svg PUBLIC "-//W3C//DTD SVG 1.1//EN" "http://www.w3.org/Graphics/SVG/1.1/DTD/svg11.dtd"><svg t="1614441341007" class="icon" viewBox="0 0 1024 1024" version="1.1" xmlns="http://www.w3.org/2000/svg" p-id="11418" xmlns:xlink="http://www.w3.org/1999/xlink" width="128" height="128"><defs><style type="text/css"></style></defs><path d="M848.896 132.192c-10.048-5.664-22.4-5.408-32.352 0.544-0.448 0.288-45.664 27.328-98.688 27.328-53.184 0-99.776-27.232-100.16-27.424a29.488 29.488 0 0 0-3.456-1.792c-3.2-1.408-79.008-34.752-149.696-34.752-70.08 0-151.936 32.96-155.36 34.368-12.032 4.896-19.936 16.64-19.936 29.632v416a32.041 32.041 0 0 0 14.24 26.624c8.928 5.984 20.192 7.04 30.08 2.912 19.68-8.224 80.992-29.536 127.68-29.536 51.52 0 115.776 24.768 126.208 28.928 11.712 6.304 68.544 35.072 133.088 35.072 72.032 0 127.776-35.616 130.08-37.152 9.088-5.92 14.592-16 14.592-26.848v-416c0.032-11.584-6.24-22.208-16.32-27.904z m-271.68 763.744H224.768V128.064c0-17.664-14.336-32-32-32s-32 14.336-32 32v768c0 0.064 0.032 0.096 0.032 0.16-16.96 0.8-30.56 14.528-30.56 31.712 0 17.696 14.336 32 32 32h414.976c17.696 0 32-14.304 32-32s-14.304-32-32-32z" p-id="11419"></path></svg>