<?xml version="1.0" standalone="no"?>
<!DOCTYPE svg PUBLIC "-//W3C//DTD SVG 1.1//EN" "http://www.w3.org/Graphics/SVG/1.1/DTD/svg11.dtd">
<svg t="1676621525727" class="icon" viewBox="0 0 1024 1024" version="1.1"
    xmlns="http://www.w3.org/2000/svg" p-id="1886" xmlns:xlink="http://www.w3.org/1999/xlink"
    width="64" height="64">
    <path
        d="M471.99999969 471.99999969c88.00000031 0 160.00000031 72 160.00000031 160.00000031v199.99999969c0 43.99999969-36 79.99999969-79.99999969 80.00000062H152c-43.99999969 0-79.99999969-36-79.99999969-80.00000062v-199.99999969c0-88.00000031 72-160.00000031 159.99999938-160.00000031h240zM692 552.00000031H792.00000031c88.00000031 0 160.00000031 72 159.99999938 159.99999938v120c0 43.99999969-36 79.99999969-79.99999969 80.00000062h-160.00000031v-280.00000031c0-28.00000031-7.99999969-55.99999969-19.99999969-79.99999969zM720.00000031 272c67.99999969 0 120 52.00000031 120 120s-52.00000031 120-120 120-120-52.00000031-120-120 55.99999969-120 120-120zM351.99999969 111.99999969c88.00000031 0 160.00000031 72 160.00000031 160.00000031s-72 160.00000031-160.00000031 160.00000031-160.00000031-72-159.99999938-160.00000031 72-160.00000031 159.99999938-160.00000031z"
        p-id="1887"></path>
</svg>