<?xml version="1.0" standalone="no"?><!DOCTYPE svg PUBLIC "-//W3C//DTD SVG 1.1//EN" "http://www.w3.org/Graphics/SVG/1.1/DTD/svg11.dtd"><svg t="1614441329307" class="icon" viewBox="0 0 1024 1024" version="1.1" xmlns="http://www.w3.org/2000/svg" p-id="10578" xmlns:xlink="http://www.w3.org/1999/xlink" width="128" height="128"><defs><style type="text/css"></style></defs><path d="M517.46416016 442.25V126.28583984A64.28583984 64.28583984 0 0 1 592.35839844 62.96416016a450 450 0 0 1 368.67832031 368.67832031 64.28583984 64.28583984 0 0 1-63.32167969 74.89335937H581.75a64.28583984 64.28583984 0 0 1-64.28583984-64.28583984z m-21.53583985 117.96416016h299.08916016a64.28583984 64.28583984 0 0 1 64.28583984 75.21416015A401.78583984 401.78583984 0 1 1 388.57167969 165.5a64.28583984 64.28583984 0 0 1 75.21416015 64.28583984v298.28583985a32.14248047 32.14248047 0 0 0 32.14248047 32.14248047z" p-id="10579"></path></svg>