<?xml version="1.0" standalone="no"?><!DOCTYPE svg PUBLIC "-//W3C//DTD SVG 1.1//EN" "http://www.w3.org/Graphics/SVG/1.1/DTD/svg11.dtd"><svg t="1614441261013" class="icon" viewBox="0 0 1024 1024" version="1.1" xmlns="http://www.w3.org/2000/svg" p-id="5392" xmlns:xlink="http://www.w3.org/1999/xlink" width="128" height="128"><defs><style type="text/css"></style></defs><path d="M898.133 341.333c0-10.666-10.666-21.333-21.333-21.333h-128v-8.533C746.667 185.6 646.4 85.333 520.533 85.333h-17.066c-123.734 0-226.134 100.267-226.134 226.134V320h-128C138.667 320 128 328.533 128 341.333l-17.067 518.4v2.134C115.2 917.333 162.133 960 217.6 960h595.2c55.467 0 102.4-42.667 106.667-98.133v-2.134l-21.334-518.4zM320 311.467C320 209.067 403.2 128 503.467 128h17.066C620.8 128 704 211.2 704 311.467V320H320v-8.533z m-21.333 243.2C275.2 554.667 256 535.467 256 512c0-14.933 8.533-29.867 21.333-36.267V384c0-12.8 8.534-21.333 21.334-21.333S320 371.2 320 384v91.733c12.8 6.4 21.333 21.334 21.333 36.267 0 23.467-19.2 42.667-42.666 42.667z m426.666 0c-23.466 0-42.666-19.2-42.666-42.667 0-14.933 8.533-29.867 21.333-36.267V384c0-12.8 8.533-21.333 21.333-21.333S746.667 371.2 746.667 384v91.733C759.467 482.133 768 497.067 768 512c0 23.467-19.2 42.667-42.667 42.667z" p-id="5393"></path></svg>