<?xml version="1.0" standalone="no"?><!DOCTYPE svg PUBLIC "-//W3C//DTD SVG 1.1//EN" "http://www.w3.org/Graphics/SVG/1.1/DTD/svg11.dtd"><svg t="1614441304345" class="icon" viewBox="0 0 1024 1024" version="1.1" xmlns="http://www.w3.org/2000/svg" p-id="8617" xmlns:xlink="http://www.w3.org/1999/xlink" width="128" height="128"><defs><style type="text/css"></style></defs><path d="M672 491.968c-83.648 68.288-160 142.208-160 142.208L373.504 467.2l-67.2 67.2s59.392 68.352 112 134.4C471.104 735.104 512 797.12 512 797.12s108.416-123.968 216.448-224.448c60.736-56.448 135.104-121.728 190.784-169.984v458.88c0 54.336-44.096 98.432-98.432 98.432H203.136c-54.336 0-98.432-44.096-98.432-98.432V310.144c0-12.352 4.8-24.256 13.44-33.088l193.92-198.784C321.024 69.184 333.248 64 345.984 64H820.8c54.336 0 98.432 44.096 98.432 98.432V312.64C861.056 352.128 746.176 431.36 672 491.968z" p-id="8618"></path></svg>