<svg t="1615283148941" class="icon" viewBox="0 0 1024 1024" version="1.1" xmlns="http://www.w3.org/2000/svg" p-id="5045"
    width="64" height="64">
    <path
        d="M552.75 563.239c44.4 26.348 99.1 26.348 143.5 0C740.65 536.89 768 488.197 768 435.5c0-81.462-64.247-147.5-143.5-147.5S481 354.038 481 435.5c0 52.697 27.35 101.39 71.75 127.739z"
        p-id="5046"></path>
    <path
        d="M471.264 952c-18.842 0-38.581-1.796-60.115-4.49l-5.384-0.899c-152.533-23.352-256.614-171.55-261.1-177.837-147.149-224.541-73.574-451.777 65.5-577.52C348.34 65.511 578.934 11.621 780.814 174.19c130.102 105.085 169.58 250.588 171.375 256.875v1.797c18.843 102.39 3.59 177.836-45.76 226.337-75.368 72.752-200.086 49.4-217.134 45.807-23.328-2.695-40.376 4.49-52.938 19.76-13.458 17.064-16.15 39.518-11.664 52.991 12.562 37.723 14.356 66.464 5.384 88.02C604.058 922.361 551.12 952 471.264 952z m-51.973-80.488l5.083 0.849c82.179 12.72 132.164-3.393 152.497-49.188 0-0.849 4.236-11.873-6.778-45.796-11.013-30.53-2.541-70.39 19.486-97.528 22.875-28.834 56.763-41.556 96.581-37.315l2.542 0.848c0.847 0 105.9 22.898 160.122-29.683 33.04-32.226 43.207-88.199 28.805-166.221-3.39-11.025-39.819-130.603-144.872-214.562-166.053-135.69-356.674-90.743-471.894 13.57-105.9 96.68-183.843 280.71-53.374 480.007 0.848 0 89.804 127.21 211.802 145.02z"
        p-id="5047"></path>
    <path
        d="M203 529c0-29.823 24.177-54 54-54s54 24.177 54 54-24.177 54-54 54-54-24.177-54-54z m90-115.235A54 54 0 0 1 266 367c0-29.823 24.177-54 54-54s54 24.177 54 54a54 54 0 0 1-81 46.765zM427 278c0-29.823 24.177-54 54-54s54 24.177 54 54-24.177 54-54 54-54-24.177-54-54z m180 44c0-29.823 24.177-54 54-54s54 24.177 54 54-24.177 54-54 54-54-24.177-54-54z m90 144c0-29.823 24.177-54 54-54s54 24.177 54 54-24.177 54-54 54-54-24.177-54-54z"
        p-id="5048"></path>
</svg>