<?xml version="1.0" standalone="no"?>
<!DOCTYPE svg PUBLIC "-//W3C//DTD SVG 1.1//EN" "http://www.w3.org/Graphics/SVG/1.1/DTD/svg11.dtd">
<svg t="1676620705733" class="icon" viewBox="0 0 1024 1024" version="1.1"
    xmlns="http://www.w3.org/2000/svg" p-id="1701" xmlns:xlink="http://www.w3.org/1999/xlink"
    width="64" height="64">
    <path
        d="M823.04 746.24H200.96c-15.36 0-28.8-11.52-28.8-28.8v-11.52c0-15.36 11.52-28.8 28.8-28.8h120.96c19.2 0 36.48-15.36 36.48-36.48s-15.36-32.64-34.56-32.64H200.96c-55.68 0-99.84 44.16-99.84 99.84v11.52c0 55.68 44.16 99.84 99.84 99.84h620.16c15.36 0 28.8 11.52 28.8 28.8v9.6c0 15.36-11.52 28.8-28.8 28.8H308.48c-19.2 0-36.48 15.36-36.48 36.48 0 19.2 15.36 36.48 36.48 36.48h512.64c55.68 0 99.84-44.16 99.84-99.84v-11.52c1.92-57.6-44.16-101.76-97.92-101.76z"
        p-id="1702"></path>
    <path
        d="M512 66.56c-128.64 0-232.32 103.68-232.32 232.32S437.12 654.08 512 654.08c96 0 232.32-226.56 232.32-355.2S638.72 66.56 512 66.56zM512 416c-65.28 0-119.04-53.76-119.04-119.04s53.76-119.04 119.04-119.04 119.04 53.76 119.04 119.04S577.28 416 512 416z"
        p-id="1703"></path>
</svg>