<?xml version="1.0" standalone="no"?><!DOCTYPE svg PUBLIC "-//W3C//DTD SVG 1.1//EN" "http://www.w3.org/Graphics/SVG/1.1/DTD/svg11.dtd"><svg t="1614441325978" class="icon" viewBox="0 0 1024 1024" version="1.1" xmlns="http://www.w3.org/2000/svg" p-id="10297" xmlns:xlink="http://www.w3.org/1999/xlink" width="128" height="128"><defs><style type="text/css"></style></defs><path d="M407.467 488.533a106.667 106.667 0 1 0 213.333 0 106.667 106.667 0 1 0-213.333 0z" p-id="10298"></path><path d="M512 64C264.533 64 64 264.533 64 512c0 236.8 183.467 428.8 416 445.867v-134.4c-53.333-59.734-200.533-230.4-200.533-334.934 0-130.133 104.533-234.666 234.666-234.666S748.8 358.4 748.8 488.533c0 61.867-49.067 153.6-145.067 270.934L544 827.733V960c232.533-17.067 416-211.2 416-448 0-247.467-200.533-448-448-448z" p-id="10299"></path></svg>