<?xml version="1.0" standalone="no"?><!DOCTYPE svg PUBLIC "-//W3C//DTD SVG 1.1//EN" "http://www.w3.org/Graphics/SVG/1.1/DTD/svg11.dtd"><svg t="1614441270012" class="icon" viewBox="0 0 1024 1024" version="1.1" xmlns="http://www.w3.org/2000/svg" p-id="5955" xmlns:xlink="http://www.w3.org/1999/xlink" width="128" height="128"><defs><style type="text/css"></style></defs><path d="M867.2 160H160c-54.4 0-96 44.8-96 96v512c0 54.4 41.6 96 96 96h707.2c54.4 0 96-41.6 96-96V256c0-51.2-41.6-96-96-96z m-672 163.2c0-19.2 12.8-32 32-32H416c19.2 0 32 12.8 32 32V512c0 19.2-12.8 32-32 32H227.2c-19.2 0-32-12.8-32-32V323.2zM800 736H224c-19.2 0-32-12.8-32-32s12.8-32 32-32h576c19.2 0 32 12.8 32 32s-12.8 32-32 32zM512 448c0-19.2 12.8-32 32-32h128c19.2 0 32 12.8 32 32s-12.8 32-32 32H544c-19.2 0-32-12.8-32-32z m288-96H544c-19.2 0-32-12.8-32-32s12.8-32 32-32h256c19.2 0 32 12.8 32 32s-12.8 32-32 32z" p-id="5956"></path></svg>