<?xml version="1.0" standalone="no"?>
<!DOCTYPE svg PUBLIC "-//W3C//DTD SVG 1.1//EN" "http://www.w3.org/Graphics/SVG/1.1/DTD/svg11.dtd">
<svg t="1676620716973" class="icon" viewBox="0 0 1024 1024" version="1.1"
    xmlns="http://www.w3.org/2000/svg" p-id="2460" xmlns:xlink="http://www.w3.org/1999/xlink"
    width="64" height="64">
    <path
        d="M512 70.99999966c243.55327466 0 441.00000034 197.44672466 441.00000034 441.00000034S755.55327466 953.00000034 512 953.00000034 70.99999966 755.55327466 70.99999966 512 268.44672534 70.99999966 512 70.99999966z m221.80095 329.38290068a33.075 33.075 0 0 0-46.76805 0.06615L545.835725 542.04312534l-84.5397-92.10285068a33.075 33.075 0 0 0-48.17924966-0.59535l-123.36975 127.89000068a33.075 33.075 0 1 0 47.60594932 45.93014966l98.97142534-102.59865 84.15382534 91.6839a33.075 33.075 0 0 0 47.793375 0.99225l165.59549966-166.09162466a33.075 33.075 0 0 0-0.06615-46.76805z"
        p-id="2461"></path>
</svg>