<?xml version="1.0" standalone="no"?>
<!DOCTYPE svg PUBLIC "-//W3C//DTD SVG 1.1//EN" "http://www.w3.org/Graphics/SVG/1.1/DTD/svg11.dtd">
<svg t="1676622469986" class="icon" viewBox="0 0 1024 1024" version="1.1"
    xmlns="http://www.w3.org/2000/svg" p-id="1521" xmlns:xlink="http://www.w3.org/1999/xlink"
    width="64" height="64">
    <path
        d="M933.92 314.72c27.36-27.36 27.36-71.04 0-98.4l-132.96-132.96c-26.88-27.36-71.04-27.36-98.4 0l-135.36 135.36 231.36 231.84 135.36-135.84z"
        p-id="1522"></path>
    <path
        d="M160.64 625.28c-13.92 13.92-24.48 31.68-30.72 50.4L72.8 884.96c-7.68 24.96 6.24 51.36 31.2 59.52 9.12 2.88 19.2 2.88 28.32 0l209.28-57.12c19.2-6.24 36.48-16.32 50.88-30.72L444.8 804.32l-231.36-231.84-52.8 52.8zM325.28 98.72c-29.28-29.76-77.76-29.76-107.52 0l-0.48 0.48-125.28 125.28c-29.76 29.76-29.76 77.76 0 107.52L151.52 392l110.4-110.88c14.88-14.88 38.88-14.88 53.76 0 14.88 14.88 14.88 38.88 0 53.76L205.28 444.8l53.76 53.76L324.8 432.8c14.4-14.88 38.4-15.36 53.28-0.48l0.48 0.48c14.88 14.88 14.88 38.88 0 53.76l-65.28 65.76 53.76 53.76 109.92-110.4c14.88-14.88 38.88-14.88 53.76 0s14.88 38.88 0 53.76l-111.36 109.44L473.6 713.6l0.48-0.48 64.8-65.28c14.88-14.88 38.88-14.88 53.76 0s14.88 38.88 0 53.76L527.36 766.4l-0.48 0.48 53.76 53.76 109.92-109.92c14.88-14.88 38.88-14.88 53.76 0 14.88 14.88 14.88 38.88 0 53.76l-110.4 109.44 64.32 64.32c29.76 29.76 77.76 29.76 107.52 0.48l0.48-0.48 125.76-125.76c29.76-29.76 29.76-77.76 0-107.52L325.28 98.72z"
        p-id="1523"></path>
</svg>