<?xml version="1.0" standalone="no"?><!DOCTYPE svg PUBLIC "-//W3C//DTD SVG 1.1//EN" "http://www.w3.org/Graphics/SVG/1.1/DTD/svg11.dtd"><svg t="1614441331528" class="icon" viewBox="0 0 1024 1024" version="1.1" xmlns="http://www.w3.org/2000/svg" p-id="10718" xmlns:xlink="http://www.w3.org/1999/xlink" width="128" height="128"><defs><style type="text/css"></style></defs><path d="M928.768 87.232c-0.032-7.456-1.216-13.696-2.848-19.328-31.328-8.288-72.128 1.248-106.624 17.984-7.072 3.424-23.84 13.632-48.672 28.736-10.272 6.272-19.328 11.776-23.328 14.048-0.384 0.224-0.608 0.64-0.96 0.864C678.56 88.256 599.296 64 514.272 64c-247.04 0-448 200.96-448 448 0 82.816 22.976 160.192 62.304 226.784C82.112 810.4 59.072 862.112 65.088 897.152c1.248 7.168 13.6 8.32 20.384 8.32 138.432 0 454.848-303.776 494.208-342.496C753.504 392 928.864 182.976 928.768 87.232zM306.272 610.688c-44.096 0-80-35.872-80-80 0-44.096 35.904-80 80-80s80 35.904 80 80c0 44.128-35.904 80-80 80z m140.8-224c-52.928 0-96-43.072-96-96s43.072-96 96-96 96 43.072 96 96-43.072 96-96 96zM895.904 278.56C828.8 378.208 723.296 497.856 618.048 601.344c-28.64 28.192-202.272 196.448-348.096 286.112 0.128-0.096 0.224-0.16 0.352-0.224C340.576 933.088 424.288 960 514.272 960c247.04 0 448-200.96 448-448-0.032-85.6-24.544-165.344-66.368-233.44zM640.032 800c-35.296 0-64-28.704-64-64s28.704-64 64-64 64 28.704 64 64-28.704 64-64 64z" p-id="10719"></path></svg>