<?xml version="1.0" standalone="no"?><!DOCTYPE svg PUBLIC "-//W3C//DTD SVG 1.1//EN" "http://www.w3.org/Graphics/SVG/1.1/DTD/svg11.dtd"><svg t="1614441278876" class="icon" viewBox="0 0 1024 1024" version="1.1" xmlns="http://www.w3.org/2000/svg" p-id="6655" xmlns:xlink="http://www.w3.org/1999/xlink" width="128" height="128"><defs><style type="text/css"></style></defs><path d="M512 133.12c208.896 0 378.88 169.984 378.88 378.88S720.896 890.88 512 890.88 133.12 720.896 133.12 512 303.104 133.12 512 133.12m0-71.68C262.144 61.44 61.44 262.144 61.44 512S264.192 962.56 512 962.56 962.56 759.808 962.56 512 761.856 61.44 512 61.44z" p-id="6656"></path><path d="M602.112 784.384h-2.048c-14.336-2.048-24.576-12.288-28.672-24.576l-67.584-356.352-36.864 129.024c-4.096 12.288-16.384 20.48-28.672 20.48h-36.864l-36.864 92.16c-4.096 12.288-16.384 20.48-28.672 20.48s-24.576-8.192-28.672-20.48l-45.056-135.168-14.336 28.672c-4.096 10.24-16.384 18.432-28.672 18.432H184.32c-16.384 0-30.72-14.336-30.72-30.72s14.336-34.816 30.72-34.816h16.384l38.912-81.92c6.144-12.288 16.384-18.432 30.72-18.432 12.288 0 22.528 8.192 26.624 20.48l40.96 126.976 12.288-30.72c4.096-12.288 16.384-20.48 28.672-20.48h34.816l67.584-229.376c4.096-14.336 16.384-22.528 30.72-22.528s26.624 10.24 28.672 24.576l71.68 374.784 92.16-260.096c4.096-12.288 16.384-20.48 28.672-20.48s24.576 8.192 28.672 20.48l40.96 116.736h36.864c16.384 0 30.72 12.288 30.72 30.72 0 16.384-12.288 30.72-30.72 30.72h-59.392c-14.336 0-24.576-8.192-28.672-20.48l-20.48-55.296-100.352 286.72c-4.096 12.288-16.384 20.48-28.672 20.48z" p-id="6657"></path></svg>