<?xml version="1.0" standalone="no"?>
<!DOCTYPE svg PUBLIC "-//W3C//DTD SVG 1.1//EN" "http://www.w3.org/Graphics/SVG/1.1/DTD/svg11.dtd">
<svg t="1676620723186" class="icon" viewBox="0 0 1024 1024" version="1.1"
    xmlns="http://www.w3.org/2000/svg" p-id="2912" xmlns:xlink="http://www.w3.org/1999/xlink"
    width="64" height="64">
    <path
        d="M813.70700452 204.11302251H715.31013546L703.31586889 118.76357564c-3.81768724-27.35277872-29.54685225-49.73232564-57.22142873-49.73232564H377.9348148c-27.67457648 0-53.38911401 22.37954693-57.25068369 49.82008882l-11.9357575 85.26168369H210.32224958C154.76831702 204.11302251 109.74593449 217.62851385 109.74593449 260.64697499v25.90469137h804.49350355V260.64697499c0-43.01846199-44.99312757-56.53395247-100.53243352-56.53395248zM379.95336197 119.77284966h264.10790354l11.78948611 84.34017285H368.16387501zM830.46972328 349.19976941H193.55953083c-36.86042983 0-64.35947993 30.05880299-60.99523523 66.77296057L187.48926186 888.15190785c3.32036398 36.72878505 36.24608928 66.75833394 73.13577233 66.75833393h502.76455824c36.87505644 0 69.80078174-30.04417552 73.13577321-66.75833393l54.89571127-472.17917787c3.36424556-36.72878505-24.10555044-66.77296057-60.95135363-66.77296057z m-56.06588332 105.73970076a22.67208972 22.67208972 0 0 1-22.68671635 22.68671633H279.96213332a22.67208972 22.67208972 0 0 1-22.68671721-22.68671633 22.68671721 22.68671721 0 0 1 22.68671721-22.68671721h471.75499029a22.68671721 22.68671721 0 0 1 22.68671635 22.68671721z"
        p-id="2913"></path>
</svg>