<?xml version="1.0" standalone="no"?><!DOCTYPE svg PUBLIC "-//W3C//DTD SVG 1.1//EN" "http://www.w3.org/Graphics/SVG/1.1/DTD/svg11.dtd"><svg t="1614441311089" class="icon" viewBox="0 0 1025 1024" version="1.1" xmlns="http://www.w3.org/2000/svg" p-id="9037" xmlns:xlink="http://www.w3.org/1999/xlink" width="128.125" height="128"><defs><style type="text/css"></style></defs><path d="M512.26455078 82.10585938C263.58681641 82.10585938 62.52910156 258.29667969 62.52910156 475.22744141c0 11.11113281 0.52910156 22.22226562 1.58730469 33.33339843C74.6984375 619.14306641 137.66152344 716.49775391 231.3125 782.10546875v147.61933594c0 22.75136719 24.86777344 36.50800781 43.91542969 24.86777343l152.90947265-92.59277343c27.51328125 4.2328125 55.55566406 6.87832031 84.12714844 6.87832031 235.45019531 0 428.57138672-158.20048828 448.14814453-359.78818359 1.05820312-11.11113281 2.11640625-22.22226562 2.11640625-33.33339844C962 258.29667969 760.41230469 82.10585938 512.26455078 82.10585938zM286.86728516 458.29619141c0-15.34394531 12.6984375-28.04238281 28.04238281-28.04238282h41.26992187c15.34394531 0 28.04238281 12.6984375 28.04238282 28.04238282s-12.6984375 28.04238281-28.04238282 28.04238281h-41.26992187c-15.34394531 0.52910156-28.04150391-12.16933594-28.04150391-28.04238281z m365.60917968 157.67226562H371.52353516c-15.34394531 0-28.04238281-12.6984375-28.04238282-28.04238281s12.6984375-28.04238281 28.04238282-28.04238281h281.48203125c15.34394531 0 28.04238281 12.6984375 28.04238281 28.04238281-0.52910156 15.34394531-12.6984375 28.04238281-28.57148438 28.04238281z m56.61386719-129.10078125H462.52900391c-15.34394531 0-28.04238281-12.6984375-28.04238282-28.04238281s12.6984375-28.04238281 28.04238282-28.04238281h246.03222656c15.34394531 0 28.04238281 12.6984375 28.04238281 28.04238281 0.52822266 15.34394531-12.16933594 28.04238281-27.51328125 28.04238281z" p-id="9038"></path></svg>