<?xml version="1.0" standalone="no"?>
<!DOCTYPE svg PUBLIC "-//W3C//DTD SVG 1.1//EN" "http://www.w3.org/Graphics/SVG/1.1/DTD/svg11.dtd">
<svg t="1676620711280" class="icon" viewBox="0 0 1024 1024" version="1.1"
    xmlns="http://www.w3.org/2000/svg" p-id="2002" xmlns:xlink="http://www.w3.org/1999/xlink"
    width="64" height="64">
    <path
        d="M515.90095238 603.67238095c85.82095238 0 208.70095238-202.84952381 208.70095238-319.87809524S629.02857143 75.09333333 515.90095238 75.09333333c-115.07809524 0-208.70095238 93.62285714-208.70095238 208.70095238s140.43428571 319.87809524 208.70095238 319.87809524z m0-460.31238095c78.01904762 0 140.43428571 62.4152381 140.43428572 140.43428571 0 39.00952381-21.4552381 103.3752381-56.56380953 159.93904762-35.10857143 58.51428571-68.26666667 85.82095238-81.92 91.67238096-42.91047619-25.35619048-142.3847619-167.74095238-142.3847619-249.66095239 0-79.96952381 62.4152381-142.3847619 140.43428571-142.3847619z"
        p-id="2003"></path>
    <path
        d="M917.69904762 326.7047619c-9.75238095-5.85142857-23.40571429-5.85142857-33.15809524 0l-72.16761905 44.86095239c-15.60380952 9.75238095-19.5047619 31.20761905-11.70285714 44.86095238 9.75238095 15.60380952 31.20761905 19.5047619 44.86095238 11.70285714l19.50476191-11.70285714v341.33333333l-222.35428572 118.97904762-251.61142857-134.58285714c-9.75238095-5.85142857-21.4552381-5.85142857-33.15809524 0L155.06285714 857.23428571V478.84190476l60.46476191-33.15809524c17.55428571-7.80190476 21.4552381-29.25714286 13.65333333-44.86095238-7.80190476-17.55428571-29.25714286-21.4552381-44.86095238-13.65333333l-79.96952381 42.91047619c-9.75238095 5.85142857-17.55428571 17.55428571-17.55428571 31.20761905v454.46095238c0 11.70285714 5.85142857 23.40571429 17.55428571 29.25714286 5.85142857 3.90095238 11.70285714 5.85142857 17.55428571 5.85142857 5.85142857 0 11.70285714-1.95047619 17.55428572-3.90095238l241.85904762-132.63238096L629.02857143 945.00571429c9.75238095 5.85142857 21.4552381 5.85142857 33.15809524 0l255.51238095-136.53333334c11.70285714-5.85142857 19.5047619-17.55428571 19.5047619-31.20761905V357.91238095c-1.95047619-13.65333333-7.80190476-23.40571429-19.5047619-31.20761905z"
        p-id="2004"></path>
</svg>