<?xml version="1.0" standalone="no"?><!DOCTYPE svg PUBLIC "-//W3C//DTD SVG 1.1//EN" "http://www.w3.org/Graphics/SVG/1.1/DTD/svg11.dtd"><svg t="1614441283344" class="icon" viewBox="0 0 1024 1024" version="1.1" xmlns="http://www.w3.org/2000/svg" p-id="6936" xmlns:xlink="http://www.w3.org/1999/xlink" width="128" height="128"><defs><style type="text/css"></style></defs><path d="M512 64C265.6 64 64 265.6 64 512s201.6 448 448 448 448-201.6 448-448S758.4 64 512 64z m179.2 480l-256 156.8c-6.4 3.2-12.8 3.2-19.2 3.2-6.4 0-9.6 0-16-3.2-9.6-6.4-16-16-16-28.8V352c0-12.8 6.4-22.4 16-28.8 9.6-6.4 22.4-6.4 32 0l256 166.4c9.6 6.4 16 16 16 28.8 0 9.6-3.2 22.4-12.8 25.6z" p-id="6937"></path></svg>