<?xml version="1.0" standalone="no"?>
<!DOCTYPE svg PUBLIC "-//W3C//DTD SVG 1.1//EN" "http://www.w3.org/Graphics/SVG/1.1/DTD/svg11.dtd">
<svg t="1676620718841" class="icon" viewBox="0 0 1024 1024" version="1.1"
    xmlns="http://www.w3.org/2000/svg" p-id="2610" xmlns:xlink="http://www.w3.org/1999/xlink"
    width="64" height="64">
    <path
        d="M326.91745024 255.1471687a93.9347495 93.9347495 0 0 1 93.9347495-93.9347506h93.9347506a46.9673753 46.9673753 0 0 0 46.9673742-46.9673742 46.9673753 46.9673753 0 0 0-46.9673742-46.9673753h-93.9347506a187.8695001 187.8695001 0 0 0-187.869499 187.8695001v657.5432487a46.9673753 46.9673753 0 0 0 46.96737419 46.96737531 46.9673753 46.9673753 0 0 0 46.96737531-46.96737531z"
        p-id="2611"></path>
    <path
        d="M92.08057594 396.0492935m46.9673742 0l328.7716249 0q46.9673753 0 46.9673753 46.9673742l0 0q0 46.9673753-46.9673753 46.9673753l-328.7716249 0q-46.9673753 0-46.9673742-46.9673753l0 0q0-46.9673753 46.9673742-46.9673742Z"
        p-id="2612"></path>
    <path
        d="M885.35953857 396.0492935a46.9673753 46.9673753 0 0 0-40.86161619 23.4836871l-93.9347506 164.3858119-93.93474951-164.3858119a46.9673753 46.9673753 0 0 0-40.8616162-23.4836871 46.9673753 46.9673753 0 0 0-40.39194207 70.4510624l122.11517447 211.3531872-122.11517447 211.3531872a46.9673753 46.9673753 0 0 0 40.39194207 70.45106241 46.9673753 46.9673753 0 0 0 40.8616162-23.48368821l93.93474951-164.38581189 93.9347506 164.38581189a46.9673753 46.9673753 0 0 0 40.86161619 23.48368821 46.9673753 46.9673753 0 0 0 40.39194208-70.45106241l-122.11517448-211.3531872 122.11517448-211.3531872a46.9673753 46.9673753 0 0 0-40.39194208-70.4510624z"
        p-id="2613"></path>
</svg>