<?xml version="1.0" standalone="no"?>
<!DOCTYPE svg PUBLIC "-//W3C//DTD SVG 1.1//EN" "http://www.w3.org/Graphics/SVG/1.1/DTD/svg11.dtd">
<svg t="1676622194189" class="icon" viewBox="0 0 1024 1024" version="1.1"
    xmlns="http://www.w3.org/2000/svg" p-id="1452" xmlns:xlink="http://www.w3.org/1999/xlink"
    width="64" height="64">
    <path
        d="M512 586.99999971a74.99999971 74.99999971 0 1 0 0-149.99999942 74.99999971 74.99999971 0 0 0 0 149.99999942z m0 75.00000058a150.00000029 150.00000029 0 1 0 0-300.00000058 150.00000029 150.00000029 0 0 0 0 300.00000058zM811.99999971 380.75000029a37.50000029 37.50000029 0 1 0 0-75.00000058 37.50000029 37.50000029 0 0 0 0 75.00000058z m0 74.99999971a112.5 112.5 0 1 0 0-225 112.5 112.5 0 0 0 0 225zM811.99999971 718.25000029a37.50000029 37.50000029 0 1 0 0-75.00000058 37.50000029 37.50000029 0 0 0 0 75.00000058z m0 74.99999971a112.5 112.5 0 1 0 0-225 112.5 112.5 0 0 0 0 225zM212.00000029 718.25000029a37.50000029 37.50000029 0 1 0 0-75.00000058 37.50000029 37.50000029 0 0 0 0 75.00000058z m0 74.99999971a112.5 112.5 0 1 0 0-225 112.5 112.5 0 0 0 0 225zM212.00000029 380.75000029a37.50000029 37.50000029 0 1 0 0-75.00000058 37.50000029 37.50000029 0 0 0 0 75.00000058z m0 74.99999971A112.5 112.5 0 1 0 212.00000029 230.75a112.5 112.5 0 0 0 0 225zM512 212.00000029a37.50000029 37.50000029 0 1 0 0-75.00000058 37.50000029 37.50000029 0 0 0 0 75.00000058z m0 74.99999971a112.5 112.5 0 1 0 0-225 112.5 112.5 0 0 0 0 225zM512 887.00000029a37.50000029 37.50000029 0 1 0 0-75.00000058 37.50000029 37.50000029 0 0 0 0 75.00000058z m0 74.99999971a112.5 112.5 0 1 0 0-225 112.5 112.5 0 0 0 0 225z"
        p-id="1453"></path>
    <path d="M474.49999971 586.99999971h75.00000058v206.25000029h-75.00000058V586.99999971z"
        p-id="1454"></path>
    <path
        d="M530.74999971 605.75000029h-37.49999942v168.75h37.49999942v-168.75z m-56.25-18.75000058v206.25000029h75.00000058V586.99999971h-75.00000058z"
        p-id="1455"></path>
    <path d="M474.49999971 230.75h75.00000058v206.25000029h-75.00000058V230.75z"
        p-id="1456"></path>
    <path
        d="M530.74999971 249.49999971h-37.49999942v168.75h37.49999942v-168.75z m-56.25-18.74999971v206.25000029h75.00000058V230.75h-75.00000058z"
        p-id="1457"></path>
    <path
        d="M790.55 629.52499971l-37.50000029 64.95000029-182.64375-105.45000029 37.50000029-64.94999942 182.64375 105.44999942z"
        p-id="1458"></path>
    <path
        d="M746.18749971 668.86250029l18.75000058-32.47500058-150.1875-86.69999971-18.75000058 32.47499971 150.1875 86.70000058z m44.36250029-39.33750058l-182.64375-105.44999942-37.50000029 64.94999942 182.64375 105.45000029 37.50000029-64.95000029z"
        p-id="1459"></path>
    <path
        d="M459.2375 438.23750029l-37.50000029 64.96875-188.28749971-108.73125 37.50000029-64.95000029 188.28749971 108.71250029z"
        p-id="1460"></path>
    <path
        d="M414.87499971 477.59374971l18.75000058-32.49374942-155.8125-89.96250058-18.75000058 32.47500058 155.8125 89.98124942z m44.36250029-39.35624942l-188.28749971-108.71250029-37.50000029 64.95000029 188.28749971 108.73125 37.50000029-64.96875z"
        p-id="1461"></path>
    <path
        d="M753.04999971 329.525l37.50000029 64.95000029-185.83125029 107.30624942-37.49999942-64.94999942 185.83124942-107.30625029z"
        p-id="1462"></path>
    <path
        d="M764.93750029 387.61250029l-18.75000058-32.47500058-153.37499942 88.55625058 18.74999971 32.47499971 153.37500029-88.55624971z m-11.88750058-58.08750029l-185.83124942 107.30625029 37.49999942 64.94999942 185.83125029-107.30624942-37.50000029-64.95000029z"
        p-id="1463"></path>
    <path
        d="M410.78750029 527.13125l37.49999942 64.95000029-177.35625 102.39374971-37.49999942-64.95000029 177.37499971-102.375z"
        p-id="1464"></path>
    <path
        d="M422.675 585.21875029l-18.74999971-32.47500058-144.88125029 83.64375 18.74999971 32.47500058 144.88125029-83.62500029z m-11.88749971-58.08750029l-177.35625 102.39374971 37.49999942 64.95000029 177.37500058-102.375-37.50000029-64.96875z"
        p-id="1465"></path>
</svg>