<?xml version="1.0" standalone="no"?><!DOCTYPE svg PUBLIC "-//W3C//DTD SVG 1.1//EN" "http://www.w3.org/Graphics/SVG/1.1/DTD/svg11.dtd"><svg t="1614441259332" class="icon" viewBox="0 0 1024 1024" version="1.1" xmlns="http://www.w3.org/2000/svg" p-id="5252" xmlns:xlink="http://www.w3.org/1999/xlink" width="128" height="128"><defs><style type="text/css"></style></defs><path d="M926.54933333 370.9952L645.9392 97.8944c-38.87786667-37.6832-112.81066667-37.75146667-151.79093333 0.1024l-348.84266667 341.23093333c-60.17706667 58.368-75.43466667 81.8176-75.43466667 161.04106667v153.53173333c0 141.6192 28.7744 204.8 199.3728 204.8h140.66346667c86.528 0 137.0112-49.7664 206.88213333-118.6816l309.3504-317.5424c19.83146667-19.18293333 31.19786667-46.8992 31.19786667-76.01493333 0-28.91093333-11.22986667-56.38826667-30.78826667-75.3664zM310.40853333 805.0688c-56.45653333 0-102.4-45.94346667-102.4-102.4s45.94346667-102.4 102.4-102.4 102.4 45.94346667 102.4 102.4-45.94346667 102.4-102.4 102.4z" p-id="5253"></path></svg>