<?xml version="1.0" standalone="no"?><!DOCTYPE svg PUBLIC "-//W3C//DTD SVG 1.1//EN" "http://www.w3.org/Graphics/SVG/1.1/DTD/svg11.dtd"><svg t="1614441284945" class="icon" viewBox="0 0 1024 1024" version="1.1" xmlns="http://www.w3.org/2000/svg" p-id="7076" xmlns:xlink="http://www.w3.org/1999/xlink" width="128" height="128"><defs><style type="text/css"></style></defs><path d="M699.498496 793.02322252c-102.60024889 65.24472889-212.6764563 85.28175408-330.3135763 55.12305778-99.9424-25.61972148-178.67055408-82.76954075-236.59709629-167.90565927-113.18309925-166.34007703-85.29389037-393.90776889 64.40732444-529.93137778 150.44152889-136.70324148 376.79559111-142.24952889 534.40967112-13.84751407 156.78881185 127.72238222 206.19567408 369.53808592 71.21578666 557.56572445 2.20880592 2.34230518 4.50256592 4.86665482 6.90555259 7.26964148 42.9382163 42.96248889 85.96138667 85.8400237 128.81464889 128.87533037 26.06876445 26.19012741 31.72427852 59.41930667 15.44950519 88.61923555-22.9497363 41.19058963-78.49756445 49.23695408-112.20005927 15.83786667-45.21984-44.79506963-90.06345482-89.96636445-135.08911406-134.96775111-2.24521482-2.23307852-4.5996563-4.35693037-7.00264297-6.63855407z m-227.22787555-639.58281482c-165.40558222 0-300.19128889 134.48229925-300.02138075 299.34174815 0.16990815 164.58031408 134.87066075 299.30533925 299.32961185 299.41456593 165.33276445 0.10922667 300.08206222-134.16675555 300.21556148-299.1597037 0.15777185-165.29635555-134.11821037-299.59661037-299.52379258-299.59661038z" p-id="7077"></path></svg>