<?xml version="1.0" standalone="no"?>
<!DOCTYPE svg PUBLIC "-//W3C//DTD SVG 1.1//EN" "http://www.w3.org/Graphics/SVG/1.1/DTD/svg11.dtd">
<svg t="1676621744967" class="icon" viewBox="0 0 1024 1024" version="1.1"
    xmlns="http://www.w3.org/2000/svg" p-id="1410" xmlns:xlink="http://www.w3.org/1999/xlink"
    width="64" height="64">
    <path
        d="M886.976 102q28.224 0 47.88 19.656t19.656 47.88l0 51.408q0 28.224-19.656 47.88t-47.88 19.656l-747.936 0q-28.224 0-47.88-19.656t-19.656-47.88l0-51.408q0-28.224 19.656-47.88t47.88-19.656l747.936 0zM886.976 417.504q28.224 0 47.88 19.656t19.656 47.88l0 51.408q0 28.224-19.656 47.88t-47.88 19.656l-747.936 0q-28.224 0-47.88-19.656t-19.656-47.88l0-51.408q0-28.224 19.656-47.88t47.88-19.656l747.936 0zM886.976 733.008q28.224 0 47.88 19.656t19.656 47.88l0 51.408q0 28.224-19.656 47.88t-47.88 19.656l-747.936 0q-28.224 0-47.88-19.656t-19.656-47.88l0-51.408q0-28.224 19.656-47.88t47.88-19.656l747.936 0z"
        p-id="1411"></path>
</svg>