<?xml version="1.0" standalone="no"?>
<!DOCTYPE svg PUBLIC "-//W3C//DTD SVG 1.1//EN" "http://www.w3.org/Graphics/SVG/1.1/DTD/svg11.dtd">
<svg t="1676620747474" class="icon" viewBox="0 0 1024 1024" version="1.1"
    xmlns="http://www.w3.org/2000/svg" p-id="3509" xmlns:xlink="http://www.w3.org/1999/xlink"
    width="64" height="64">
    <path
        d="M858.61262222 956.47971556h-693.22524444c-53.01134222 0-97.86709332-44.85575112-97.86709334-101.94488889v-232.43434667h888.95943112v232.43434667c0 57.08913778-44.85575112 101.94488889-97.86709334 101.94488889z m-236.51214222-220.20096H177.62076444v110.10048h444.47971556v-110.10048z m224.27875556 0h-110.10048v110.10048h110.10048v-110.10048zM67.52028444 165.38737778C67.52028444 108.29823999 112.37603556 63.44248888 165.38737778 63.44248888h693.22524444c53.01134222 0 97.86709332 44.85575112 97.86709334 101.9448889v399.62396444H67.52028444V165.38737778zM246.94328888 471.22204445l81.55591112-138.64504889 187.57859556 126.41166222 101.94488888-159.03402666 199.81198222 114.17827556 44.85575112-81.55591112-277.29009777-175.3452089-93.78929779 163.11182223-203.88977778-110.10048001-122.33386666 216.12316446 81.5559111 44.85575111z"
        p-id="3510"></path>
</svg>