<?xml version="1.0" standalone="no"?><!DOCTYPE svg PUBLIC "-//W3C//DTD SVG 1.1//EN" "http://www.w3.org/Graphics/SVG/1.1/DTD/svg11.dtd"><svg t="1614441255776" class="icon" viewBox="0 0 1024 1024" version="1.1" xmlns="http://www.w3.org/2000/svg" p-id="4972" xmlns:xlink="http://www.w3.org/1999/xlink" width="128" height="128"><defs><style type="text/css"></style></defs><path d="M891.733 170.667H132.267c-38.4 0-68.267 29.866-68.267 68.266v102.4h896v-102.4c0-38.4-29.867-68.266-68.267-68.266z m0 704c38.4 0 68.267-29.867 68.267-68.267V426.667H64V806.4c0 38.4 29.867 68.267 68.267 68.267h759.466zM192 554.667h253.867c19.2 0 32 12.8 32 32s-12.8 32-32 32H187.733c-17.066-2.134-27.733-14.934-27.733-32 0-19.2 12.8-32 32-32z m0 128h128c19.2 0 32 12.8 32 32s-12.8 32-32 32H187.733c-17.066-2.134-27.733-14.934-27.733-32 0-19.2 12.8-32 32-32z" p-id="4973"></path></svg>