<?xml version="1.0" standalone="no"?><!DOCTYPE svg PUBLIC "-//W3C//DTD SVG 1.1//EN" "http://www.w3.org/Graphics/SVG/1.1/DTD/svg11.dtd"><svg t="1614441277399" class="icon" viewBox="0 0 1024 1024" version="1.1" xmlns="http://www.w3.org/2000/svg" p-id="6515" xmlns:xlink="http://www.w3.org/1999/xlink" width="128" height="128"><defs><style type="text/css"></style></defs><path d="M842.688 128H181.312C116.64 128 64 180.64 64 245.312v533.376C64 843.36 116.64 896 181.312 896h661.376C907.36 896 960 843.36 960 778.688V245.312C960 180.64 907.36 128 842.688 128zM288 288c35.36 0 64 28.64 64 64s-28.64 64-64 64c-35.328 0-64-28.64-64-64s28.672-64 64-64z m544 448c0 17.696-14.304 31.488-32 31.488L225.92 768h-0.352c-10.08 0-19.616-4.288-25.664-12.384-6.112-8.192-7.936-18.56-4.896-28.352 2.304-7.488 58.272-183.552 180.064-183.552 38.08 0.896 67.424 9.824 95.776 18.336 35.712 10.72 70.528 19.936 109.664 13.76 20.448-3.296 28.896-23.808 43.328-69.952 19.04-60.8 47.808-152.736 174.656-152.736 17.536 0 31.776 14.08 32 31.616L832 511.616V736z" p-id="6516"></path></svg>