<?xml version="1.0" standalone="no"?><!DOCTYPE svg PUBLIC "-//W3C//DTD SVG 1.1//EN" "http://www.w3.org/Graphics/SVG/1.1/DTD/svg11.dtd">
<svg
	t="1695872076721"
	class="icon"
	viewBox="0 0 1024 1024"
	version="1.1"
	xmlns="http://www.w3.org/2000/svg"
	p-id="2736"
	xmlns:xlink="http://www.w3.org/1999/xlink"
	width="64"
	height="64"
>
	<path
		d="M860.665625 73.54166667H166.2875c-50.6953125 0-91.74375 41.0484375-91.74375 91.74375v694.2796875c0 50.6953125 41.0484375 91.74375 91.74375 91.74375h694.2796875c50.6953125 0 91.74375-41.0484375 91.74375-91.74375V165.18697917c0-50.596875-41.0484375-91.6453125-91.6453125-91.6453125zM743.721875 95.29635417c82.884375 0 150.01875 67.134375 150.01875 150.01875 0 101.784375-86.3296875 169.2140625-143.325 242.746875-1.4765625 1.96875-2.953125 3.8390625-4.4296875 5.8078125 3.740625-5.11875-26.8734375-33.7640625-30.7125-37.8984375C660.640625 397.00729167 593.703125 331.64479167 593.703125 245.31510417c-0.0984375-82.884375 67.134375-150.01875 150.01875-150.01875z m175.3171875 407.53125L719.6046875 714.36979167l143.71875 140.8640625c8.071875 7.875 8.1703125 20.7703125 0.2953125 28.8421875-4.0359375 4.0359375-9.253125 6.103125-14.56875 6.103125-5.11875 0-10.3359375-1.96875-14.2734375-5.8078125L537.790625 593.29166667 287.6609375 858.48229167c-4.0359375 4.2328125-9.45 6.3984375-14.8640625 6.3984375-5.0203125 0-10.040625-1.8703125-13.978125-5.5125-8.1703125-7.678125-8.5640625-20.5734375-0.8859375-28.8421875l250.7203125-265.78125-124.228125-121.7671875-192.740625 204.35625c-4.0359375 4.2328125-9.45 6.3984375-14.8640625 6.3984375-5.0203125 0-10.040625-1.8703125-13.978125-5.5125-8.1703125-7.678125-8.5640625-20.5734375-0.8859375-28.8421875l193.2328125-204.946875-191.559375-187.7203125c-8.071875-7.875-8.1703125-20.7703125-0.2953125-28.8421875s20.7703125-8.1703125 28.8421875-0.2953125l344.53125 337.5421875 62.015625-65.75625c7.678125-8.1703125 20.5734375-8.5640625 28.8421875-0.8859375 8.1703125 7.678125 8.5640625 20.5734375 0.8859375 28.8421875l-62.5078125 66.2484375L690.4671875 685.82291667l198.9421875-210.9515625c7.678125-8.1703125 20.5734375-8.5640625 28.8421875-0.8859375 8.1703125 7.7765625 8.5640625 20.671875 0.7875 28.8421875z"
		p-id="2737"
	></path>
	<path
		d="M743.721875 231.82916667m-78.35625 0a78.35625 78.35625 0 1 0 156.7125 0 78.35625 78.35625 0 1 0-156.7125 0Z"
		p-id="2738"
	></path>
</svg>
