<?xml version="1.0" standalone="no"?><!DOCTYPE svg PUBLIC "-//W3C//DTD SVG 1.1//EN" "http://www.w3.org/Graphics/SVG/1.1/DTD/svg11.dtd"><svg t="1695871526545" class="icon" viewBox="0 0 1024 1024" version="1.1" xmlns="http://www.w3.org/2000/svg" p-id="1650" xmlns:xlink="http://www.w3.org/1999/xlink" width="64" height="64"><path d="M863.10912 69.76H161.21856a58.43626667 58.43626667 0 0 0-58.65472 58.27242667v696.10154667h0.38229333c0 65.97290667 53.79413333 119.43936 120.14933334 119.43936h695.82848a2.78528 2.78528 0 0 0 2.78528-2.73066667v-218.07104h0.05461333V128.03242667A58.43626667 58.43626667 0 0 0 863.10912 69.76zM319.87029333 296.24149334h384.58709334c14.47253333 0 26.15978667 11.63264 26.15978666 25.99594666s-11.74186667 25.99594667-26.15978666 25.99594667H319.87029333a26.05056 26.05056 0 1 1 0-51.99189333z m0 193.11274666h384.58709334c14.47253333 0 26.15978667 11.63264 26.15978666 25.99594667a26.10517333 26.10517333 0 0 1-26.15978666 25.99594667H319.87029333a26.05056 26.05056 0 1 1 0-51.99189334z m545.91488 398.67733334H223.09546667a64.11605333 64.11605333 0 0 1-64.27989334-63.84298667c0-35.2256 28.83584-63.84298667 64.27989334-63.84298667h642.68970666v127.68597334z" p-id="1651"></path></svg>