<?xml version="1.0" standalone="no"?><!DOCTYPE svg PUBLIC "-//W3C//DTD SVG 1.1//EN" "http://www.w3.org/Graphics/SVG/1.1/DTD/svg11.dtd">
<svg
	t="1695872080939"
	class="icon"
	viewBox="0 0 1024 1024"
	version="1.1"
	xmlns="http://www.w3.org/2000/svg"
	p-id="2890"
	xmlns:xlink="http://www.w3.org/1999/xlink"
	width="64"
	height="64"
>
	<path
		d="M501.90675227 438.07135456C501.95404952 437.99781388 502.02250789 437.9329977 502.06856188 437.85820981 501.8868364 436.99067619 501.7387175 436.2328295 501.67274863 435.69311342 501.75489867 436.4821205 501.83953817 437.2761154 501.90675227 438.07135456L501.90675227 438.07135456ZM670.60178731 622.53087173C670.60801052 622.53087173 670.60801052 622.52339342 670.60801052 622.51965377 670.58560617 622.50843585 670.50843411 622.50843585 670.49225295 622.48350655 670.5171478 622.50843585 670.57689345 622.50843585 670.60178731 622.53087173L670.60178731 622.53087173ZM674.92213044 623.071835C673.87782964 622.90356298 671.53157577 623.20894465 670.60303156 622.53087173 670.03047181 624.51024706 670.89429139 625.25687483 674.92213044 623.071835L674.92213044 623.071835ZM510.60345045 72.9290856C268.02070817 72.9290856 71.37724598 269.8506859 71.37724598 512.77405048 71.37724598 755.69242821 268.02070817 952.62275402 510.60345045 952.62275402 753.17747806 952.62275402 949.8284097 755.69367444 949.8284097 512.77405048 949.8284097 269.8506859 753.17747806 72.9290856 510.60345045 72.9290856L510.60345045 72.9290856ZM791.1544303 244.74827685C776.02015883 245.20822017 765.48504289 245.23688811 753.3268422 253.63925817 748.42771512 257.03087005 745.1018841 261.52185655 738.88462277 263.2681437 733.30962383 264.83992579 727.29275863 263.46259025 721.7625694 265.34100317 701.80634192 272.12297877 704.9678719 314.92757769 678.67240231 308.46220269 666.32127396 305.42707827 657.6158631 290.80987044 651.3986008 281.26449829 645.92317925 272.86711311 635.95066513 265.92185235 642.68572245 255.41172181 639.61380898 256.20072889 636.33776665 255.30203292 633.31190914 255.87789621 637.52520739 246.61546986 651.65251935 247.42442136 654.00250695 242.69037594 659.85631733 230.82534575 637.88616983 229.58636608 631.6651738 227.94104333 639.1644733 219.93753908 642.9595549 230.63339067 650.36176748 228.81730245 657.4739674 227.063537 646.60776186 217.68269721 642.34218542 216.6294396 640.80996342 216.24927102 615.7641687 223.56099098 630.2611558 210.56916345 612.36490231 199.14538035 594.47736055 187.72533589 576.57737235 176.2928263 573.56520552 189.00295423 600.39589456 196.22617592 609.15980685 200.70469729 607.79935335 205.95353046 599.64658733 213.59556238 593.40443117 211.35817152 587.52448269 209.24667139 589.91181158 199.4906479 581.03338794 200.47036386 574.69414583 215.22966819 594.43628554 210.91567823 596.27096858 219.95997495 598.3545912 230.26568623 588.80776513 225.89809804 585.13590856 225.71985527 584.26088779 225.67498255 577.4175433 218.58139221 577.04786817 223.95113225 576.6047547 230.32800898 587.96261619 227.84132614 588.76420063 234.28177183 575.53431679 234.81774927 568.7781013 230.03509148 558.00773646 222.86920667 545.43754138 214.515449 538.98752067 215.26830885 523.5868842 215.26830885 528.19226394 213.37369311 534.53772927 211.96893585 538.47595081 208.91760763 540.62678755 207.25109323 549.06956717 199.03444523 549.62594675 197.1996598 552.01203042 189.2846548 549.49649848 189.88544642 541.93371861 184.69644355 535.21111067 180.09078327 527.05834465 171.82303044 518.91180285 170.1939095 489.39879135 164.2944261 509.80933348 196.87807335 487.40603145 201.37155327 487.78939727 201.39149571 488.20388117 201.40894671 488.53372652 201.40894671L487.25044408 201.40894671C487.30770027 201.40520708 487.35375425 201.38401742 487.40603145 201.37155327 482.223113 201.18583025 472.50949639 199.9231685 469.16997467 202.6653754 466.81251861 204.59239973 466.61461198 212.33539405 463.97958777 215.13867748 459.2895695 220.14569698 452.29810611 221.14535638 446.70194802 224.7550969 441.24021814 228.28257223 429.19652881 237.33060861 425.98894485 243.4694113 414.1655675 266.08887715 452.62795048 273.11017302 467.21082135 279.72262939 473.79900304 282.71038864 493.05322152 286.80126214 496.63919333 291.79332505 501.4487029 298.4967741 492.49435344 304.78265914 502.5365682 309.49551589 505.74415315 310.9962507 512.35847295 311.30287958 515.1217002 308.19296825 519.61132236 303.12611745 513.29697411 301.98311533 512.22155623 296.13099711 510.13917786 284.8655143 513.57080852 289.34154323 519.2291998 285.15593839 530.76007405 276.63016906 528.16363635 276.107903 524.01505977 262.52276117 522.08826875 256.19948267 514.82048342 238.54715042 521.21324796 233.8791664 529.5489837 227.78897511 547.32823633 237.17978661 553.71975565 237.96505502 561.15806525 238.87746139 565.38256765 249.19937646 569.43654481 253.42112952 572.12882421 256.22441098 576.944558 262.17250775 581.64826794 261.52933483 589.11520513 260.50474714 585.99101544 253.96832292 590.32131748 250.95314292 601.93931877 242.88357627 605.00003005 253.84492461 609.63030167 264.80751819 613.98549758 275.10450495 618.10793408 278.92614402 625.85990689 285.53112208 629.46081561 288.60613339 645.23983992 299.57869967 643.75118239 306.34197805 642.74173242 310.89778073 624.71727492 317.80814145 619.89656314 319.33754423 602.27787585 324.92541388 569.22619077 310.1885464 565.67631598 338.16902581 572.51219202 335.62002021 591.95684867 319.7127289 597.78825467 327.25255119 600.44692752 330.67283005 595.67849295 335.65492123 596.80121005 339.051518 600.12828533 349.23632244 607.97236611 345.68765745 616.19732421 344.0423337 615.63720992 344.3925891 615.06216069 344.69797077 614.45474815 344.96969764 625.69311735 339.18613523 624.52559248 340.39146008 629.68237086 331.0106203 631.3664465 327.94558071 633.87077723 320.52791248 636.2431692 318.33414617 644.41211637 310.80928245 645.67050495 315.99080702 650.7314436 321.79680533 652.05704627 323.3274553 664.56873996 341.36868261 660.11521386 340.46874042 645.56097158 337.54579733 631.5867575 337.93718483 619.51693105 345.90703427 612.56280795 350.50770969 605.98458519 356.71382196 597.6787213 359.76888983 595.68845089 360.49682037 580.94625795 361.89534556 582.688835 359.37874855 585.2329955 355.7079305 593.98819408 353.27858455 597.44347339 349.31609619 587.86801971 345.36731919 579.88204325 354.08628983 572.35784892 359.18430102 564.37311767 362.96729942 562.5172745 370.01601702 555.71873877 376.1972 552.75138167 378.89204173 547.13904242 379.35073783 544.22520679 382.89690942 541.39849915 386.3383789 541.04749465 391.74925202 538.36890692 395.01621744 536.49065839 397.30346689 531.67368135 395.92239173 529.71203854 399.3688461 527.15667585 403.87354395 532.05082494 408.05416292 530.97789556 411.29869245 529.01251902 417.19443623 517.81522485 422.19647085 513.50857242 426.44190598 514.08362263 425.88847855 514.65493911 425.31760011 515.2175419 424.74049156 510.90217775 429.27510261 505.44169114 432.60937761 502.07105233 437.8569636 503.61821029 445.2646611 508.49617821 462.93195092 507.13572373 466.99789512 502.64734681 480.3711394 493.92948852 459.72356862 490.39330344 454.38997681 478.24506069 436.05957163 453.96475536 448.32596104 437.3779234 449.84663927 416.16579486 451.7898664 395.38806706 479.35901586 408.47356869 501.73666902 414.75430939 512.46866783 425.3205424 516.6243575 437.44015756 514.14016808 448.22794681 511.92895175 451.46664885 496.81690058 461.62337595 496.54143308 480.29009779 496.0428501 462.03537135 514.85812789 460.41975505 521.76350179 458.92611758 528.16032195 462.7473373 528.75114283 469.32182731 530.33663727 474.17739088 531.49958183 481.05309767 528.2562995 485.26266317 531.03216021 487.91386756 532.78592667 487.78566452 542.38240363 491.4338705 539.3560047 484.25445842 545.31531842 485.93106462 559.4464084 493.29220315 564.55314411 501.45368187 570.22327995 511.0627431 564.97320055 519.60758862 567.14951586 535.7401069 571.27155073 528.03916606 565.91801548 542.2063078 557.3536055 551.76807077 551.58250723 553.33638885 558.44051694 559.87104908 558.46793867 564.31835098 558.48538869 567.14381338 552.06363923 574.58087873 553.93207944 580.64255267 555.46272942 583.03734902 560.14816344 590.2752635 561.22634937 593.2426206 561.66385583 596.30582037 560.10827656 599.13626075 560.4211385 612.52173392 561.91065439 622.770569 570.47506437 633.31937661 578.22055212 642.01234105 584.59368923 647.77030973 583.30235952 657.92454733 586.2090988 665.34294205 588.32683002 679.03087527 599.07752702 678.3301115 608.51694992 678.20439696 610.20590019 671.71952544 618.69427606 670.61174427 622.51716133 672.50990769 623.83342035 685.71240917 620.87931589 689.57594914 620.60135595 688.30635739 622.08090111 679.31591089 628.40667402 679.31591089 625.0474707 679.31591089 626.7700738 685.67755836 630.3050284 687.2272048 631.4031568 691.9159798 616.1564884 699.61816489 625.96735635 708.88866805 629.74412169 716.77008912 632.95873606 726.47125831 633.13074773 734.87794288 635.13629858 742.01379045 636.837713 757.75049548 641.66275011 763.03796835 647.50240419 769.40334856 654.53117835 765.00334489 665.9512228 760.29341173 672.94509594 754.13216037 682.11154475 744.84298756 685.63777287 740.99936248 696.42336992 737.9623018 704.97157611 740.2425868 713.60828155 738.50747919 723.08509789 736.16122531 735.91363925 734.28048827 731.41642067 726.03063631 739.24417363 719.08896064 745.83668854 725.91487873 744.69119398 716.46389436 748.89300261 706.97059073 753.11724711 698.61120537 751.86081842 692.03920386 762.2911752 692.30183511 761.63553814 692.51592387 760.97740864 692.69889358 760.29185642 689.9257084 764.17831167 688.53911581 772.13694317 687.2247163 774.74827152 683.91133269 781.41183369 679.34080475 785.61488952 674.09938489 791.16411852 672.09169006 793.28932804 653.62660858 818.55128361 652.55990342 816.52080444 651.18824773 813.88205436 636.6290255 819.17201967 635.9357292 815.40771846 636.51451414 818.57122802 635.79756823 817.51049211 639.41341287 819.33405958 636.06517845 840.09505695 627.2962872 843.19250412 606.93802227 843.40190923 608.68931202 853.37980198 599.56070258 851.3892087 595.31877575 856.75396288 592.83809367 859.88631106 591.65438764 868.69502717 589.9354602 872.75224588 588.86128756 875.30000525 580.91389662 885.50973898 580.91389662 887.53273986 580.90518392 889.39619423 583.58750638 892.125935 586.09806031 894.74474361 571.74545839 897.58666673 557.11155556 899.56978071 542.24862706 900.77759802 545.03052495 897.26757369 545.70017263 894.18259067 536.83793014 893.7600418 539.20907788 887.30713095 544.77785263 883.62634119 547.13779719 877.37535717 548.25678055 874.42623758 547.33072583 873.26079958 548.27793969 870.3378575 551.52037644 860.25152305 550.11386798 864.05695733 548.28540814 856.2217251 544.00240531 837.85766608 549.80891745 832.83568802 554.80762095 816.02222244 559.93950744 798.74382669 559.46154317 776.34623008 562.75003292 757.73412631 564.30963827 748.82818644 566.86500098 730.29585542 563.77566308 721.87728058 560.29548992 712.39547839 544.98696144 704.92795058 537.97558217 698.55232006 528.04912302 689.49555917 522.77285333 679.70962054 515.40175686 668.51518498 511.66019769 662.83009255 507.3958655 657.25094839 504.47705187 651.0697654 498.23365048 637.85232898 504.48078463 645.71872258 505.53130963 637.91839137 506.53827013 630.37981531 504.63512773 623.64271344 507.62364495 615.73144611 510.92956011 606.98505275 519.18190255 601.53429471 521.89285161 592.71436067 524.33245869 584.86292367 522.47661454 574.99347358 514.42218069 572.37466598 509.93380279 570.90758498 504.98115327 574.28797794 500.47037098 573.54633602 494.18216183 572.52548698 487.06249442 567.82384917 482.1272713 564.06453285 475.23787283 558.80822136 472.6551268 550.26624725 465.31888212 545.28166461 459.17630239 541.12846639 454.80741481 543.613904 448.23665952 541.67067589 441.38460233 539.64892223 437.15387769 531.18298221 431.62617698 528.531767 423.33151625 524.5580607 418.65767914 530.26309658 409.90123531 529.11012275 402.45421302 528.13414644 391.09635252 519.86888702 384.13849569 516.74650958 369.99002458 510.40453386 361.3742322 503.40442864 355.71583898 489.02529388 350.8714776 476.6940883 343.80782211 470.94168725 335.49075702 460.6721232 327.06291331 450.2654495 324.42415536 441.39815027 311.43449642 438.624782 309.90974286 438.29322383 314.6134528 449.5487359 315.09888452 450.45117055 319.74036031 459.05796083 326.71066358 466.91936858 332.31677863 474.93284455 340.56538733 486.7367982 337.04911813 488.95175319 328.65861471 477.53794081 319.06324517 464.4800509 307.92943039 451.49694889 299.6061411 437.66874913 296.45954605 432.44235181 297.06322485 429.06320605 291.87408317 424.1010583 286.85919852 419.30718158 280.29715494 416.97131975 275.24741946 412.4117794 257.0785768 396.04952967 253.77515014 374.2066077 255.84757156 350.88164717 256.51970773 343.27825592 259.2630201 337.19678914 258.05317498 329.88880785 257.05492817 323.8198062 253.47766906 318.80281498 249.00796081 314.33177094 247.56784579 312.03454977 243.95200114 306.37687906 243.74289233 306.01665294 239.61796633 299.1549036 236.40913714 292.40782902 229.85705248 286.78007346 226.09806692 283.53679017 216.37076061 275.95708198 207.21227933 269.607626 248.35947425 218.21618123 302.20133455 177.48942565 363.96693617 152.20254077 364.45734589 155.3124531 365.79166127 158.41613235 367.79064537 161.38768681 372.86900844 168.93000152 377.70839083 168.33294856 387.62115735 170.42076561 386.55943213 181.9430187 373.11047956 182.0340094 364.00676595 180.78505902 353.14056139 179.29055629 341.70801833 175.67583088 332.29437425 185.21247754 337.49471908 188.34357852 351.76392575 200.53518004 349.86825181 187.79638315 360.2776542 187.27411808 370.33978483 186.96374956 380.52389627 188.21020752 384.60401252 188.71128294 398.27576458 193.30572627 401.9812287 191.21043092 403.53585508 190.33043215 405.19254642 182.64851337 406.83928077 180.2852308 403.93540208 180.30143361 400.82365981 178.8343536 397.93222855 179.11231352 404.6759976 170.46563736 411.3948718 177.24886017 419.97705861 181.22505987 410.52856273 186.97496848 416.13218927 200.75580308 425.37033012 189.55887411 432.95800386 180.3512922 423.51324171 173.6765121 413.87804239 168.3117589 423.5941475 156.14259327 429.5848746 155.04446389 438.72717473 168.77917954 440.23325764 160.30825465 447.06042098 163.69986556 454.19626954 164.32558748L454.19626954 162.20660905C451.05465444 162.28264317 447.70143908 160.47278702 444.59218727 160.79935933 451.86121686 149.18611358 447.22223252 146.53240592 457.61420656 142.74192823 465.88895337 139.72425383 489.49712254 142.53376933 492.4059792 134.74216264 475.8838699 137.95927044 455.92266444 138.72833506 441.01617242 146.25195256 434.58980131 149.49523489 426.9336702 159.73613 420.51476656 153.08004711 413.93529856 146.25195256 425.21972173 135.27190798 430.99387156 131.92516883L429.61225794 131.92516883C455.75338442 126.3572436 482.82803506 123.36823813 510.6046947 123.36823813 528.55322637 123.36823813 546.19182758 124.69820848 563.50556338 127.06647692 557.51483627 130.21752233 561.94471377 132.34522527 557.58080614 135.5648255 549.24755892 141.70362917 534.45433498 146.82532344 524.53658854 150.70429842 537.14287967 150.67064361 567.65911794 162.54190587 573.53159895 144.83348394 569.46143967 144.20776105 565.40248156 143.5795467 561.33605698 142.95382579 568.93244244 137.90941086 577.40634012 133.82726286 586.30219015 130.83451873 666.58141573 146.76050727 737.98719567 187.53712044 792.30701923 244.75575514 791.9149407 244.74827685 791.52908342 244.73830513 791.1544303 244.74827685L791.1544303 244.74827685ZM862.2403228 399.17689198C862.96349192 397.63128444 864.65254654 397.12148352 865.34957656 395.84635761 866.81707395 393.16522723 866.48971906 391.34664561 868.29577452 389.0456848 870.23003398 386.55775573 872.84016336 385.94823763 874.99846855 384.0050105 875.8697556 383.22223452 876.35394208 382.49804262 876.75349105 381.76014036 883.23213936 399.86618286 888.39638717 418.58672933 892.15163802 437.80710598 892.03836992 437.94546186 891.97489152 438.15361977 891.83299583 438.26954075 890.88827048 439.0161695 884.73324331 439.9323155 883.46987577 439.97594104 879.01137167 440.14795367 875.70047656 437.18636994 872.49911581 434.39804408 869.24298838 431.56609269 865.40932223 427.7768622 863.09542967 424.10978281 860.6247065 420.19216719 862.14946006 416.1686023 862.3274518 411.69381958 862.47432548 407.93201083 860.64586564 402.56725667 862.2403228 399.17689198L862.2403228 399.17689198ZM867.26640964 600.8487425C859.7223004 594.28489752 850.82147239 585.48615313 845.45682846 576.98406589 839.72748739 567.9185795 843.25869252 558.59009075 843.67815537 548.20834633 844.02542713 539.47691056 839.7660739 527.05222183 843.47153702 519.19081311 845.1730371 515.60226223 849.07142886 514.41438838 850.6770882 511.47399529 854.08880202 505.24669236 853.33202633 501.03740544 857.51794223 495.68387019 862.00880961 489.93396158 868.04808017 488.51798637 873.05051742 484.00954789 878.29193627 479.28298175 878.14630587 475.55233339 881.46466944 469.49704311 883.89182811 465.06588594 889.59751958 457.6806253 894.99950477 453.81785314 897.93076583 473.04695431 899.45800986 492.73973745 899.45800986 512.77280427 899.45800986 547.43429683 894.85263111 581.02882044 886.3227215 613.03785158 879.05120145 611.15943964 873.07043131 605.91060645 867.26640964 600.8487425L867.26640964 600.8487425Z"
		p-id="2891"
	></path>
</svg>
