<?xml version="1.0" standalone="no"?><!DOCTYPE svg PUBLIC "-//W3C//DTD SVG 1.1//EN" "http://www.w3.org/Graphics/SVG/1.1/DTD/svg11.dtd">
<svg
	t="1695871550331"
	class="icon"
	viewBox="0 0 1024 1024"
	version="1.1"
	xmlns="http://www.w3.org/2000/svg"
	p-id="1803"
	xmlns:xlink="http://www.w3.org/1999/xlink"
	width="64"
	height="64"
>
	<path
		d="M926.96688799 198.385496l-402.29783999-118.688976c-3.778488-1.11132001-7.77924-1.778112-11.77999201-1.778112-4.000752 0-7.77924 0.444528-11.55772799 1.555848l-381.18276 111.132c-5.334336 0.222264-10.224144 1.778112-14.669424 4.22301599l-7.112448 2.000376c-17.78112 5.11207201-30.00564 21.337344-30.00564 40.00752L67.249736 752.04512c0 17.336592 10.668672 32.89507199 26.893944 39.11846401L496.219256 943.19216001c4.667544 1.778112 9.779616 2.667168 14.66942399 2.66716799 4.88980799 0 10.00188-0.88905599 14.66942401-2.66716799l403.186896-150.69499201c16.225272-6.001128 27.11620801-21.559608 27.116208-38.8962l0.889056-514.985688c0-18.670176-12.002256-34.89544799-29.78337601-40.229784zM530.670176 149.04288801l234.48852001 69.12410399c7.77924 2.22264 7.77924 13.33584 0.22226399 15.780744l-234.043992 74.236176c-12.669048 4.000752-26.004888 4.000752-38.673936 0l-233.154936-75.12523199c-7.77924-2.444904-7.556976-13.558104 0.222264-15.78074401l235.37757601-68.45731201c11.557728-3.11169601 24.004512-3.11169601 35.56223999 0.22226402zM157.48892 268.398656l308.94696 99.352008c7.77924 2.444904 13.11357601 9.779616 13.113576 18.003384v454.52988c0 13.11357601-13.11357601 22.2264-25.56036 17.558856L144.375344 740.709656c-7.334712-2.88943199-12.22452-9.779616-12.22452-17.78112001l0.88905601-436.52649599c-0.222264-12.89131199 12.446784-21.781872 24.44903999-18.003384z"
		p-id="1804"
	></path>
</svg>
