<?xml version="1.0" standalone="no"?><!DOCTYPE svg PUBLIC "-//W3C//DTD SVG 1.1//EN" "http://www.w3.org/Graphics/SVG/1.1/DTD/svg11.dtd"><svg t="1694344500040" class="icon" viewBox="0 0 1024 1024" version="1.1" xmlns="http://www.w3.org/2000/svg" p-id="2404" xmlns:xlink="http://www.w3.org/1999/xlink" width="64" height="64"><path d="M877.26933333 714.06933333c-26.624-18.432-43.52-48.128-43.52-82.432v-199.68c0-145.92-107.52-267.776-251.392-297.984v-7.168c0-37.376-30.72-67.072-68.608-67.072s-68.608 30.208-68.608 67.072v7.168c-143.872 30.208-251.392 151.552-251.392 297.984v199.168c0 32.256-14.848 60.416-38.4 78.848-2.56 2.048-4.096 3.072-11.264 8.192-11.264 8.192-18.432 20.992-18.432 36.352 0 24.576 20.48 45.056 45.568 45.056h685.568c25.088 0 45.568-19.968 45.568-45.056 0-15.872-8.192-29.696-20.992-37.888-2.048-1.024-2.56-2.048-4.096-2.56z m-363.52 242.688c62.976 0 114.176-50.176 114.176-112.128H399.57333333c0 61.44 51.2 112.128 114.176 112.128z" fill="" p-id="2405"></path></svg>