<?xml version="1.0" standalone="no"?>
<!DOCTYPE svg PUBLIC "-//W3C//DTD SVG 1.1//EN" "http://www.w3.org/Graphics/SVG/1.1/DTD/svg11.dtd">
<svg t="1676622023768" class="icon" viewBox="0 0 1024 1024" version="1.1"
    xmlns="http://www.w3.org/2000/svg" p-id="1470" xmlns:xlink="http://www.w3.org/1999/xlink"
    width="64" height="64">
    <path
        d="M373.9996544 320.53819093l298.27051947 0c20.11542827 0 39.48256427-8.5139072 52.3939168-23.95154773 30.781264-36.58213013 59.972352-81.49120213 66.52151146-121.72205867 13.19190933-80.5555168-21.33188373-121.44150293-121.44150293-121.44150293s-66.2407424 65.67941653-105.16197973 71.1059232c-29.003696 4.02308587-27.9746336-34.24302293-73.53840747-71.01233387-32.74622507-26.2904416-69.42173227 47.99647147-112.6468256 48.464208-50.42895573 0.65491627-121.34791253-13.28549867-121.34791253 72.8834912 0 34.80456213 30.5007072 81.86534827 63.80825813 120.87996374C334.2365344 311.36915413 353.50986667 320.53819093 373.9996544 320.53819093zM746.08935147 397.25758827c-15.90516267-18.05709013-39.0146144-28.16181333-63.05975254-28.16181334L364.7372416 369.09577493c-23.0158624 0-45.18962773 9.26241387-61.09500373 25.91629547C203.62599467 499.79990507 111.3755808 649.40300693 111.3755808 758.4944832c0 96.18012373 96.6478592 217.6216256 215.84384427 217.6216256l369.5636224 0c119.19598507 0 215.84384427-120.4122272 215.84384426-217.6216256C912.62710507 647.4382592 838.43356907 502.04542187 746.08935147 397.25758827zM648.8801664 529.645696l-63.99522453 116.10858453c-5.61368747 10.1980992 1.777568 22.73509227 13.37908906 22.73509227l18.15068054 0c8.4205312 0 15.3438368 6.8299296 15.3438368 15.3438368l0 0c0 8.4205312-6.8299296 15.3438368-15.3438368 15.3438368l-45.6575776 0c-8.88826667 0-15.99875307 7.11069867-16.0923424 15.99875307l0 7.5784352c0 8.4205312 6.8299296 15.3438368 15.3438368 15.3438368l46.40586986 0c8.4205312 0 15.3438368 6.8299296 15.3438368 15.3438368s-6.8299296 15.3438368-15.3438368 15.3438368l-46.40586986 0c-8.4205312 0-15.3438368 6.8299296-15.3438368 15.3438368l0 39.0146144c0 8.4205312-6.8299296 15.3438368-15.3438368 15.3438368l-27.78745387 0c-8.4205312 0-15.3438368-6.8299296-15.3438368-15.3438368l0-39.0146144c0-8.4205312-6.8299296-15.3438368-15.3438368-15.3438368l-45.9381344 0c-8.4205312 0-15.3438368-6.8299296-15.3438368-15.3438368s6.8299296-15.3438368 15.3438368-15.3438368l45.844544 0c8.51412053 0 15.34405013-6.8299296 15.4374272-15.3438368l0.0935904-7.4848448c0.0935904-8.88826667-7.11069867-16.1859328-16.0923424-16.1859328l-45.28321813 0c-8.4205312 0-15.3438368-6.8299296-15.3438368-15.3438368l0 0c0-8.4205312 6.8299296-15.3438368 15.3438368-15.3438368l17.682944 0c11.6951104 0 18.99277653-12.53699307 13.37908906-22.73509227l-63.99543786-116.10837227c-5.61368747-10.1980992 1.777568-22.7353056 13.37908906-22.7353056l30.5007072 0c5.80065387 0 11.13378453 3.27458027 13.65985814 8.4205312l52.11314773 103.94552534c5.61368747 11.2271616 21.70602987 11.2271616 27.41330667 0l52.11314773-103.94552534c2.619664-5.1457376 7.858992-8.4205312 13.65985813-8.4205312l30.5007072 0C647.10238507 507.0039808 654.4938528 519.4475968 648.8801664 529.645696z"
        p-id="1471"></path>
</svg>