<?xml version="1.0" standalone="no"?><!DOCTYPE svg PUBLIC "-//W3C//DTD SVG 1.1//EN" "http://www.w3.org/Graphics/SVG/1.1/DTD/svg11.dtd"><svg t="1614441257585" class="icon" viewBox="0 0 1024 1024" version="1.1" xmlns="http://www.w3.org/2000/svg" p-id="5112" xmlns:xlink="http://www.w3.org/1999/xlink" width="128" height="128"><defs><style type="text/css"></style></defs><path d="M259.2 896a64 64 0 1 0 128 0 64 64 0 1 0-128 0zM768 896a64 64 0 1 0 128 0 64 64 0 1 0-128 0zM940.8 284.8c-16-19.2-38.4-28.8-64-28.8H249.6l-22.4-112c-6.4-44.8-44.8-80-92.8-80H96c-19.2 0-32 16-32 32s12.8 32 32 32h38.4c12.8 0 25.6 9.6 28.8 25.6L192 310.4l51.2 371.2c6.4 48 44.8 86.4 89.6 86.4h486.4c44.8 0 83.2-32 89.6-73.6L960 355.2c3.2-25.6-3.2-51.2-19.2-70.4z" p-id="5113"></path></svg>