<?xml version="1.0" standalone="no"?><!DOCTYPE svg PUBLIC "-//W3C//DTD SVG 1.1//EN" "http://www.w3.org/Graphics/SVG/1.1/DTD/svg11.dtd"><svg t="1614441320870" class="icon" viewBox="0 0 1024 1024" version="1.1" xmlns="http://www.w3.org/2000/svg" p-id="9877" xmlns:xlink="http://www.w3.org/1999/xlink" width="128" height="128"><defs><style type="text/css"></style></defs><path d="M956.17988281 446.79003906c-3.50683594-19.66376953-22.35234375-39.46289063-41.85175781-43.92597656l-14.45800781-3.34248047c-34.29140625-10.35351563-64.74550781-33.27539063-84.08232422-66.74589844-19.49941406-33.71132813-23.93789063-72-15.49863281-107.05693359l4.27148437-13.72060547c5.86230469-19.08984375-1.75253906-45.38144531-16.92421875-58.31103515 0 0-13.74873047-11.61035156-52.47949219-34.01367188-38.72460938-22.37519531-55.53896484-28.48535156-55.53896484-28.48535156-18.78925781-6.79130859-45.30146484-0.32607422-58.88408203 14.35253906l-10.19003906 10.95380859c-26.07363281 24.64892578-61.21142578 39.740625-99.83056641 39.740625-38.80546875 0-74.05488281-15.20068359-100.15488281-40.01396484l-9.83320313-10.62773437C387.1953125 90.94199219 360.65498047 84.44951172 341.86748047 91.24433594c0 0-16.81523438 6.07851562-55.62597656 28.48095703-38.66923828 22.40419922-52.33623047 33.9609375-52.33623047 33.9609375-15.22792969 12.92871094-22.86914063 39.11132813-16.95410156 58.28291016l4.24423828 13.85947265c8.32763672 35.02792969 3.83554687 73.23574219-15.49863282 106.92246094-19.39130859 33.60585937-50.146875 56.58398438-84.57539062 66.82324219l-14.1328125 3.23261718c-19.41503906 4.43847656-38.28955078 24.26572266-41.79550781 43.90136719 0 0-3.17548828 17.66601563-3.17548829 62.49902344 0 44.83564453 3.17548828 62.41992188 3.17548829 62.41992187 3.53320313 19.71826172 22.37871094 39.49189453 41.7946289 44.03759766l13.80761719 3.06914063c34.56298828 10.29550781 65.39941406 33.35712891 84.90234375 67.09921875 19.41503906 33.68671875 23.85351563 71.97539063 15.44414062 107.03320312l-4.18974609 13.69335938c-5.91503906 19.06083984 1.72529297 45.3515625 17.00683594 58.27939453 0 0 13.66699219 11.61298828 52.42148437 34.01542968 38.75361328 22.4578125 55.51611328 28.48623047 55.51611328 28.48623047 18.815625 6.79130859 45.27158203 0.27421875 58.85771485-14.29980468l9.72246094-10.45986329c26.10087891-24.92226562 61.37402344-40.09394531 100.23662109-40.09394531 38.83886719 0 74.16914062 15.28154297 100.37988281 40.09394531h0.02460938l9.61523437 10.46074219c13.58261719 14.57226563 39.98408203 21.09023438 58.82519531 14.29980469 0 0 16.7625-6.13476563 55.65410157-28.48710938 38.67363281-22.40332031 52.36523438-34.01542969 52.36523437-34.01542968 15.2296875-12.92695313 22.78828125-39.10869141 16.98310547-58.28027344l-4.27236328-14.1328125c-8.21777344-34.94619141-3.7265625-73.07226563 15.49863281-106.59287109 19.55566406-33.79658203 50.34111328-56.75097656 84.84785156-67.09921875v-0.05712891l13.80410157-3.17460938c19.50029297-4.43935547 38.34580078-24.21035156 41.84912109-43.93125 0 0 3.17636719-17.63789062 3.17636719-62.49902343-0.10898438-44.64316406-3.28447266-62.28105469-3.28447266-62.28105469z m-445.49121093 207.05449219c-79.61923828 0-144.20039063-64.74462891-144.20039063-144.60820312 0-79.75371094 64.58027344-144.44208984 144.20039063-144.44208985 79.61484375 0 144.11425781 64.71650391 144.11425781 144.55195313 0 79.86357422-64.49941406 144.49833984-144.11425781 144.49833984z" p-id="9878"></path></svg>